<?xml version="1.0" encoding="utf-8"?>
<!-- Generator: Adobe Illustrator 23.0.1, SVG Export Plug-In . SVG Version: 6.00 Build 0)  -->
<svg version="1.1" id="Layer_1" xmlns="http://www.w3.org/2000/svg" xmlns:xlink="http://www.w3.org/1999/xlink" x="0px" y="0px"
	 viewBox="0 0 80 80" style="enable-background:new 0 0 80 80;" xml:space="preserve">
<style type="text/css">
	.st0{fill:#37312D;}
</style>
<path class="st0" d="M79.49,39.72c0-0.05,0-0.1,0-0.16C79.26,17.95,61.67,0.5,40,0.5C18.18,0.5,0.5,18.18,0.5,40
	c0,21.82,17.68,39.5,39.5,39.5c3.91,0,7.68-0.58,11.25-1.63c16.19-4.8,28.03-19.68,28.24-37.38c0-0.01,0-0.03,0-0.04
	c0-0.08,0.01-0.15,0.01-0.23c0-0.07,0.01-0.15,0.01-0.22C79.5,39.91,79.49,39.82,79.49,39.72z M40,73.07
	C21.74,73.07,6.93,58.26,6.93,40S21.74,6.93,40,6.93c16.42,0,30.03,11.96,32.62,27.65c-0.06,0.01-0.13,0.02-0.19,0.02
	c-0.15,0.02-0.3,0.01-0.46,0.01c-0.16,0-0.32-0.04-0.48-0.07c-0.16-0.03-0.31-0.07-0.47-0.11c-0.16-0.04-0.32-0.05-0.49-0.06
	c-0.16-0.01-0.31-0.03-0.47-0.05c-0.16-0.02-0.33,0.01-0.49,0.03c0.23-0.08,0.47-0.17,0.71-0.24c0.07-0.02,0.13-0.04,0.2-0.04
	c0.13-0.01,0.26,0,0.39-0.02c0.16-0.02,0.31-0.06,0.46-0.09c-0.13-0.02-0.25-0.05-0.38-0.06c-0.13-0.02-0.26-0.02-0.39-0.01
	c-0.15,0.01-0.31,0.01-0.46,0.04c-0.13,0.01-0.25,0.01-0.38,0.03c-0.1,0.01-0.19,0.05-0.28,0.09c-0.05,0.02-0.1,0.04-0.15,0.06
	c0.06-0.05,0.12-0.1,0.18-0.15c0.07-0.06,0.13-0.11,0.21-0.16c0.08-0.05,0.17-0.08,0.25-0.11c0.13-0.05,0.27-0.07,0.4-0.1
	c-0.06,0-0.13,0-0.19,0c-0.12,0-0.24-0.01-0.36,0.03c-0.13,0.05-0.26,0.11-0.39,0.16c-0.13,0.05-0.27,0.07-0.41,0.08
	c-0.11,0.01-0.22-0.02-0.32-0.06c-0.12-0.04-0.23-0.07-0.35-0.11c-0.11-0.03-0.21-0.06-0.32-0.09c-0.09-0.03-0.18-0.05-0.26-0.08
	l-0.66-0.17c0.15-0.01,0.31-0.01,0.46-0.03c0.08-0.02,0.17-0.03,0.25-0.05c0.12-0.02,0.23-0.08,0.35-0.12c-0.06,0-0.12,0-0.17,0
	c-0.16-0.01-0.32-0.02-0.48-0.07c-0.15-0.05-0.3-0.08-0.44-0.14c-0.18-0.07-0.34-0.19-0.53-0.25c-0.12-0.04-0.23-0.08-0.35-0.13
	c-0.22-0.08-0.42-0.2-0.62-0.31c-0.06-0.03-0.12-0.07-0.17-0.11c-0.13-0.08-0.25-0.16-0.38-0.23c-0.13-0.08-0.25-0.15-0.38-0.23
	l-0.3-0.19c0.02,0.01,0.07,0.01,0.1,0.01c0.07,0.01,0.13,0.01,0.2,0.02c0.26,0.02,0.52,0.07,0.77,0.14l0.4,0.11
	c-0.08-0.04-0.16-0.07-0.24-0.11c-0.12-0.05-0.23-0.11-0.35-0.16c-0.15-0.07-0.29-0.14-0.44-0.2c-0.23-0.09-0.47-0.18-0.7-0.27
	c-0.2-0.09-0.4-0.19-0.57-0.33c-0.05-0.04-0.1-0.09-0.15-0.13c0.02,0.02,0.08,0.02,0.11,0.02c0.04,0.01,0.07,0.01,0.11,0.02
	c0.07,0.01,0.15,0.03,0.22,0.05c0.14,0.03,0.28,0.07,0.42,0.1c0.14,0.04,0.27,0.09,0.39,0.15c0.16,0.07,0.3,0.16,0.45,0.25
	c-0.1-0.1-0.2-0.2-0.3-0.3c-0.09-0.1-0.18-0.2-0.29-0.28c-0.16-0.13-0.4-0.2-0.59-0.24c-0.12-0.02-0.23-0.06-0.35-0.1
	c-0.09-0.03-0.19-0.07-0.28-0.1c-0.12-0.04-0.23-0.11-0.34-0.17c-0.11-0.07-0.22-0.13-0.34-0.2c-0.07-0.04-0.13-0.08-0.2-0.12
	c-0.13-0.08-0.26-0.14-0.4-0.21c-0.2-0.09-0.41-0.16-0.61-0.23c0.19-0.03,0.38-0.06,0.57-0.09c0.36-0.06,0.69-0.22,1.05-0.25
	c0.1-0.01,0.21-0.02,0.31-0.02c0.31-0.02,0.61-0.04,0.92-0.04c0.09,0,0.18,0,0.27,0c0.13,0,0.26,0,0.38,0c0.14,0,0.28,0,0.41-0.01
	c0.13-0.01,0.26-0.03,0.39-0.05c0.15-0.02,0.29-0.05,0.42-0.12c0.09-0.04,0.18-0.08,0.26-0.12c0.09-0.04,0.17-0.09,0.25-0.13
	c0.03-0.02,0.06-0.03,0.1-0.05c0.01,0,0.03-0.02,0.04-0.02c-0.07,0.02-0.15,0.04-0.22,0.05c-0.1,0.02-0.2,0.06-0.3,0.07
	c-0.1,0.02-0.21,0.02-0.31,0.03c-0.13,0.01-0.26,0.03-0.39,0.02c-0.13-0.01-0.25-0.04-0.38-0.06c-0.29-0.04-0.58-0.04-0.87-0.07
	c-0.18-0.02-0.37-0.05-0.55-0.09l-0.4-0.08c0.22-0.02,0.43-0.05,0.65-0.07c0.08-0.01,0.17-0.01,0.25-0.01c0.25,0,0.49,0,0.74,0
	c0.07,0,0.14,0,0.22,0c0.13-0.01,0.26,0,0.38-0.02c0.12-0.01,0.23-0.06,0.34-0.09c0.05-0.01,0.11-0.03,0.16-0.04
	c0.02-0.01,0.05-0.02,0.07-0.02c-0.22,0-0.44,0-0.66,0c-0.11,0-0.22,0-0.33,0c-0.14,0-0.28,0-0.42,0c-0.1,0-0.2,0-0.31-0.01
	c-0.32-0.01-0.64-0.02-0.96-0.04c-0.09-0.01-0.18-0.01-0.28-0.02c-0.3-0.03-0.6-0.05-0.9-0.06c-0.09,0-0.17,0-0.26,0
	c-0.1,0-0.2,0-0.3,0.01c-0.25,0.01-0.51-0.01-0.76-0.03c-0.25-0.01-0.49,0.01-0.74,0.01c-0.1,0-0.2,0-0.3,0c-0.14,0-0.28,0-0.41,0
	c-0.18,0-0.35,0.02-0.53,0.04c0.39-0.19,0.78-0.39,1.19-0.55c0.11-0.04,0.23-0.08,0.35-0.11c0.21-0.06,0.41-0.12,0.62-0.16
	c0.2-0.04,0.4-0.08,0.6-0.12c0.16-0.03,0.31-0.07,0.47-0.11c0.13-0.03,0.25-0.06,0.37-0.1c0.26-0.09,0.52-0.18,0.78-0.26
	c0.09-0.03,0.18-0.06,0.27-0.1c0.09-0.04,0.16-0.11,0.25-0.16c0.08-0.05,0.17-0.1,0.25-0.15c0.01-0.01,0.03-0.03,0.05-0.03
	l-0.85,0.27c-0.23,0.07-0.46,0.13-0.69,0.17c-0.17,0.03-0.34,0.05-0.51,0.07c-0.24,0.04-0.48,0.09-0.72,0.14
	c-0.15,0.03-0.3,0.06-0.45,0.1c-0.17,0.04-0.34,0.07-0.51,0.1c-0.07,0.01-0.15,0.03-0.22,0.04l-0.5,0.12
	c0.14-0.08,0.27-0.16,0.41-0.23c0.12-0.06,0.26-0.11,0.39-0.15c0.14-0.05,0.27-0.1,0.42-0.13c0.29-0.06,0.57-0.13,0.86-0.2
	c0.08-0.02,0.17-0.04,0.25-0.06c0.09-0.02,0.18-0.04,0.28-0.07c0.14-0.03,0.28-0.08,0.43-0.12c0.23-0.07,0.46-0.15,0.69-0.23
	c0.02-0.01,0.04-0.01,0.07-0.02l0.5-0.24c-0.25,0.06-0.49,0.13-0.74,0.2c-0.07,0.02-0.14,0.03-0.21,0.04
	c-0.26,0.03-0.51,0.06-0.76,0.1c-0.2,0.03-0.4,0.06-0.6,0.08c-0.13,0.02-0.26,0.03-0.39,0.04c-0.13,0-0.26-0.01-0.39-0.01
	c0.01,0,0.03-0.03,0.03-0.03c0.03-0.03,0.05-0.06,0.08-0.09c0.11-0.11,0.21-0.25,0.34-0.33c0.13-0.08,0.25-0.16,0.38-0.24
	c0.17-0.1,0.34-0.19,0.52-0.27c0.09-0.04,0.18-0.07,0.27-0.11c0.08-0.04,0.14-0.1,0.21-0.15c0.04-0.03,0.09-0.06,0.13-0.1
	c-0.29,0.05-0.59,0.1-0.88,0.14c-0.1,0.01-0.2,0.02-0.31,0.03c-0.19,0.02-0.38,0.03-0.57,0.04c-0.15,0.01-0.3,0.01-0.45,0.02
	c-0.15,0.01-0.3,0.03-0.44,0.05c-0.1,0.01-0.2,0.03-0.3,0.05c-0.02,0-0.04,0.01-0.06,0.01l-0.65,0.12l-0.71,0.12
	c0.25-0.13,0.5-0.27,0.74-0.4c0.1-0.06,0.2-0.11,0.29-0.17c0.15-0.1,0.31-0.19,0.46-0.29c0.16-0.11,0.29-0.25,0.43-0.37
	c0.16-0.13,0.3-0.28,0.45-0.42c-0.14,0.07-0.27,0.15-0.41,0.23c-0.12,0.07-0.23,0.17-0.36,0.24c-0.1,0.05-0.21,0.11-0.31,0.16
	c-0.33,0.15-0.68,0.25-1.03,0.35c-0.15,0.04-0.3,0.08-0.45,0.12c-0.08,0.02-0.15,0.05-0.23,0.06c-0.08,0.01-0.17,0.03-0.25,0.04
	c0.17-0.17,0.34-0.34,0.51-0.51c0.08-0.08,0.17-0.17,0.26-0.25c0.18-0.17,0.36-0.34,0.52-0.53c0.08-0.09,0.17-0.18,0.23-0.27
	c0.07-0.1,0.12-0.21,0.17-0.31c0.05-0.09,0.1-0.18,0.15-0.27c0.01-0.02,0.02-0.04,0.03-0.05c0,0-0.33,0.4-0.33,0.4
	c-0.13,0.16-0.24,0.36-0.4,0.5c-0.12,0.09-0.24,0.18-0.36,0.29c-0.17,0.16-0.35,0.32-0.53,0.47c-0.2,0.17-0.41,0.32-0.63,0.46
	c-0.08,0.05-0.17,0.11-0.27,0.13c-0.11,0.03-0.23,0.03-0.34,0.05c-0.01,0-0.06,0-0.06,0.01c0.03-0.07,0.06-0.14,0.08-0.21
	c0.05-0.13,0.1-0.25,0.15-0.38c0.03-0.08,0.06-0.15,0.08-0.23c0.04-0.12,0.07-0.24,0.1-0.36c0.05-0.17,0.11-0.35,0.14-0.52
	c0.02-0.15,0.04-0.3,0.07-0.45c0.06-0.36,0.06-0.73,0.02-1.09c-0.01-0.1-0.02-0.21-0.04-0.31c-0.03-0.18-0.06-0.36-0.08-0.54
	c0-0.02,0-0.04-0.01-0.06c-0.12,0.1-0.24,0.2-0.35,0.3c-0.05,0.05-0.1,0.1-0.14,0.16c-0.08,0.1-0.16,0.2-0.25,0.29
	c-0.07,0.07-0.15,0.12-0.23,0.18c-0.1,0.08-0.19,0.16-0.28,0.24c-0.07,0.07-0.14,0.13-0.21,0.19c-0.08,0.07-0.19,0.11-0.28,0.17
	c-0.05,0.03-0.13,0.06-0.17,0.1c0.17-0.18,0.34-0.37,0.5-0.55c0.08-0.09,0.17-0.17,0.25-0.27c0.04-0.05,0.06-0.1,0.08-0.15
	c0.07-0.16,0.13-0.32,0.2-0.48c0.08-0.18,0.2-0.35,0.29-0.52c0.08-0.15,0.09-0.33,0.13-0.5c0.02-0.09,0.04-0.18,0.06-0.27
	c-0.09,0.18-0.17,0.35-0.26,0.53c-0.03,0.07-0.07,0.14-0.1,0.2c-0.06,0.12-0.12,0.24-0.18,0.36c-0.08,0.16-0.19,0.31-0.29,0.46
	l-0.29,0.34c0.01-0.01,0-0.05,0-0.06c0-0.05,0-0.09-0.01-0.14c-0.01-0.12-0.02-0.25-0.01-0.37c0.02-0.25,0.06-0.5,0.1-0.74
	c0.02-0.16,0.1-0.31,0.16-0.46c-0.08,0.1-0.15,0.21-0.23,0.31c-0.07,0.09-0.15,0.17-0.19,0.27c-0.05,0.14-0.11,0.29-0.14,0.44
	c-0.02,0.11-0.03,0.22-0.06,0.33c-0.03,0.11-0.07,0.22-0.09,0.34c-0.03,0.12-0.1,0.21-0.18,0.31c-0.14,0.17-0.26,0.34-0.38,0.52
	c-0.05,0.07-0.09,0.14-0.15,0.2c-0.06,0.05-0.12,0.1-0.18,0.15c-0.09,0.07-0.18,0.16-0.28,0.23c-0.14,0.1-0.28,0.2-0.42,0.3
	c-0.12,0.09-0.28,0.13-0.43,0.17c-0.06,0.02-0.13,0.04-0.19,0.06c-0.03,0.01-0.07,0.02-0.1,0.03c-0.02,0.01-0.07,0.01-0.09,0.03
	c0.08-0.06,0.14-0.13,0.22-0.19c0.12-0.11,0.24-0.21,0.36-0.31c0.07-0.06,0.14-0.12,0.19-0.19c0.17-0.19,0.34-0.37,0.5-0.56
	c0.08-0.09,0.14-0.19,0.22-0.28c0.11-0.14,0.2-0.29,0.28-0.45c0.03-0.06,0.06-0.11,0.09-0.17c-0.01,0.01-0.03,0.03-0.04,0.04
	c-0.04,0.03-0.08,0.07-0.11,0.1c-0.08,0.07-0.16,0.15-0.25,0.22c-0.12,0.1-0.26,0.18-0.4,0.26c0.15-0.17,0.29-0.34,0.44-0.51
	c0.06-0.07,0.12-0.14,0.17-0.22c0.09-0.13,0.19-0.26,0.28-0.39c0.11-0.15,0.22-0.31,0.33-0.46c0.01-0.01,0.02-0.03,0.03-0.04
	c-0.17,0.14-0.33,0.27-0.5,0.4c-0.07,0.05-0.14,0.1-0.21,0.15c-0.13,0.08-0.26,0.17-0.39,0.25c-0.14,0.09-0.28,0.19-0.42,0.28
	l-0.47,0.29l-0.47,0.27l-0.42,0.24l-0.34,0.17c0.07-0.07,0.13-0.15,0.2-0.22c0.12-0.13,0.24-0.26,0.36-0.4
	c0.08-0.09,0.17-0.19,0.27-0.27c0.12-0.1,0.23-0.2,0.35-0.29c0.18-0.15,0.33-0.34,0.49-0.51c0.09-0.09,0.17-0.19,0.27-0.27
	c0.15-0.13,0.35-0.2,0.53-0.3c-0.23,0.06-0.47,0.11-0.68,0.23c-0.15,0.09-0.28,0.21-0.43,0.3c-0.12,0.06-0.23,0.13-0.36,0.18
	c-0.12,0.05-0.25,0.07-0.37,0.1c-0.13,0.03-0.27,0.07-0.41,0.09c-0.19,0.04-0.38,0.06-0.56,0.14c-0.12,0.05-0.25,0.11-0.38,0.15
	c-0.22,0.06-0.46,0.09-0.69,0.13c-0.07,0.01-0.14,0.02-0.21,0.03c-0.2,0.02-0.4,0.04-0.6,0.02c-0.28-0.04-0.55-0.09-0.83-0.15
	c-0.08-0.02-0.15-0.03-0.23-0.05c-0.08-0.02-0.16-0.03-0.24-0.05c-0.03-0.01-0.05-0.01-0.08-0.02c0.37-0.05,0.74-0.1,1.11-0.1
	c0.11,0,0.21,0,0.32,0c0.16,0,0.33,0.01,0.49,0.01c0.02,0,0.04,0,0.06,0h0.47c-0.09-0.01-0.18-0.03-0.27-0.04
	c-0.14-0.02-0.28-0.04-0.43-0.06c-0.12-0.02-0.25-0.03-0.37-0.04c-0.1-0.01-0.19-0.02-0.29-0.03c-0.13-0.01-0.26-0.03-0.39-0.04
	c-0.08-0.01-0.16-0.02-0.24-0.03c-0.17-0.02-0.34-0.04-0.51-0.06c-0.03,0-0.06-0.01-0.09-0.01c-0.19-0.02-0.37-0.04-0.56-0.07
	c-0.07-0.01-0.14-0.01-0.21-0.02c-0.18-0.01-0.37-0.01-0.56-0.01c0.12-0.04,0.25-0.08,0.37-0.11c0.1-0.02,0.19-0.03,0.29-0.04
	c0.07-0.01,0.14-0.02,0.21-0.03c0.07,0,0.14,0.01,0.21,0.02c0.05,0.01,0.09,0.01,0.14,0.02c-0.05-0.01-0.1-0.04-0.14-0.06
	c-0.05-0.02-0.11-0.04-0.17-0.04c-0.11-0.01-0.23-0.02-0.34-0.03c-0.28-0.04-0.57-0.09-0.85-0.12c-0.26-0.03-0.51-0.05-0.77-0.04
	c-0.17,0-0.34,0.01-0.51,0.03c-0.24,0.02-0.49,0.03-0.73,0.07c-0.09,0.01-0.17,0.03-0.26,0.03c-0.09,0-0.17-0.04-0.25-0.06
	c-0.04-0.01-0.1-0.04-0.15-0.04c0.2-0.06,0.4-0.13,0.61-0.18c0.08-0.02,0.16-0.04,0.24-0.05c0.17-0.03,0.34-0.05,0.5-0.07
	c0.26-0.03,0.53-0.01,0.8-0.01c0.05,0,0.1,0,0.14,0l0.31,0.03c0,0-0.54-0.11-0.54-0.11c-0.2-0.04-0.41-0.03-0.62-0.03
	c-0.19,0-0.38,0-0.57,0.02c-0.15,0.02-0.31,0.04-0.46,0.07c-0.15,0.03-0.31,0.07-0.46,0.1c-0.09,0.02-0.18,0.04-0.27,0.05
	c-0.4,0.07-0.79,0.13-1.18,0.22c-0.11,0.03-0.22,0.05-0.33,0.07c-0.35,0.07-0.7,0.15-1.06,0.22c-0.14,0.03-0.28,0-0.42-0.02
	c-0.07-0.01-0.19,0-0.25-0.03c-0.02-0.01-0.05-0.05-0.07-0.06c-0.31-0.26-0.62-0.54-1.01-0.67c-0.21-0.07-0.44-0.09-0.67-0.13
	c-0.35-0.06-0.68-0.03-1.03,0c-0.13,0.01-0.31,0-0.44,0.04c0.27-0.08,0.54-0.15,0.81-0.23c0.16-0.05,0.31-0.12,0.47-0.18
	c0.36-0.14,0.71-0.36,1.01-0.62c0.17-0.15,0.28-0.33,0.43-0.49c0.07-0.08,0.14-0.15,0.18-0.25c0.01-0.03,0.07-0.21,0.11-0.21
	c0,0,0.8,0,0.8,0c0.31,0,0.63-0.08,0.94-0.08c0.21,0,0.43,0,0.64,0c0.54,0,1.08-0.07,1.61-0.11c0.16-0.01,0.31-0.03,0.47-0.05
	c0.26-0.03,0.5-0.15,0.75-0.24c0.06-0.02,0.15-0.08,0.21-0.08c-0.16,0-0.35,0.06-0.51,0.09c-0.26,0.05-0.53,0.09-0.79,0.12
	c-0.15,0.02-0.31,0.03-0.46,0.04c-0.44,0.03-0.88-0.01-1.32-0.03c-0.26-0.01-0.51,0.02-0.77,0.03c-0.54,0.03-1.07,0.04-1.61,0.02
	c-0.2-0.01-0.4,0.01-0.6,0.03c-0.32,0.02-0.63-0.07-0.95-0.14c-0.21-0.05-0.42-0.17-0.63-0.23c-0.12-0.03-0.26-0.04-0.38-0.05
	c-0.22-0.02-0.44,0-0.65,0c0.29-0.23,0.59-0.47,0.89-0.69c0.13-0.1,0.26-0.19,0.4-0.27c0.25-0.15,0.48-0.28,0.74-0.4
	c0.03-0.01,0.06-0.03,0.09-0.04l0.29-0.09c0,0-0.52,0.1-0.53,0.1c-0.1,0.02-0.22,0.06-0.32,0.1c-0.11,0.05-0.22,0.11-0.32,0.17
	l-0.33,0.16c0.25-0.3,0.49-0.59,0.82-0.8c0.17-0.11,0.33-0.23,0.51-0.31c0.15-0.07,0.29-0.14,0.46-0.18c0.1-0.03,0.2-0.05,0.3-0.08
	c-0.45,0.11-0.9,0.09-1.34,0.28c-0.32,0.14-0.59,0.43-0.87,0.65l-0.41,0.32c-0.31,0.21-0.63,0.43-0.95,0.63
	c-0.15,0.1-0.3,0.16-0.47,0.22c-0.29,0.12-0.57,0.25-0.85,0.39c-0.04,0.02-0.07,0.04-0.11,0.05c0,0,0.5-0.51,0.5-0.51
	c0.32-0.32,0.6-0.69,0.92-1.01c0.19-0.19,0.39-0.39,0.61-0.55c0.15-0.1,0.3-0.21,0.44-0.31c0.13-0.09,0.26-0.2,0.4-0.28
	c0.17-0.1,0.37-0.15,0.53-0.25c-0.19,0.04-0.4,0.08-0.58,0.17c-0.25,0.12-0.51,0.24-0.76,0.36c-0.38,0.18-0.72,0.45-1.05,0.72
	c-0.15,0.12-0.29,0.26-0.44,0.39c-0.31,0.28-0.65,0.52-0.93,0.82c-0.09,0.1-0.18,0.2-0.27,0.3c-0.16,0.19-0.32,0.39-0.48,0.59
	c-0.1-0.12-0.2-0.24-0.29-0.37c-0.16-0.24-0.29-0.5-0.43-0.76c-0.28-0.58-0.56-1.13-0.94-1.65c-0.11-0.15-0.22-0.29-0.33-0.43
	c-0.11-0.14-0.21-0.29-0.32-0.43c-0.11-0.14-0.24-0.27-0.36-0.4c-0.12-0.13-0.24-0.27-0.36-0.4c-0.13-0.14-0.26-0.28-0.4-0.43
	c-0.11-0.12-0.23-0.23-0.39-0.29c-0.15-0.06-0.49-0.03-0.57,0.15c-0.08,0.2-0.13,0.42-0.09,0.63c0.03,0.13,0.11,0.24,0.13,0.37
	c0.05,0.27,0.02,0.57,0.01,0.85c-0.01,0.14-0.04,0.29-0.05,0.43c-0.03,0.33-0.03,0.66-0.08,0.98c-0.04,0.29,0.04,0.6,0.07,0.88
	c0.01,0.12,0.03,0.24,0.05,0.36c0.08,0.48,0.24,0.93,0.41,1.38c0.07,0.17,0.13,0.33,0.22,0.49c0.22,0.4,0.49,0.76,0.76,1.13
	c0.09,0.13,0.17,0.26,0.26,0.4c0.05,0.09,0.13,0.18,0.15,0.29c0.02,0.14-0.05,0.29-0.09,0.42c-0.03,0.11-0.04,0.22-0.04,0.33
	c-0.04,0.08-0.06,0.15-0.13,0.22c-0.1,0.11-0.21,0.22-0.34,0.3c-0.15,0.1-0.27,0.21-0.41,0.33c-0.14,0.12-0.31,0.21-0.45,0.33
	c-0.15,0.13-0.29,0.27-0.41,0.43c-0.11,0.13-0.2,0.28-0.31,0.42c-0.04,0.06-0.09,0.11-0.14,0.16c-0.14,0.17-0.41,0.22-0.6,0.33
	c-0.04,0.03-0.1,0.06-0.13,0.1c-0.03,0.04-0.04,0.09-0.05,0.14c-0.1,0.32-0.34,0.6-0.58,0.83c-0.42,0.4-0.84,0.81-1.23,1.24
	c-0.11,0.12-0.22,0.25-0.33,0.38c-0.31,0.38-0.66,0.75-0.99,1.11c-0.1,0.11-0.2,0.21-0.3,0.32c-0.33,0.33-0.65,0.65-0.96,1
	c-0.09,0.1-0.17,0.21-0.26,0.31c-0.36,0.47-0.7,0.97-1.07,1.44c-0.31,0.4-0.65,0.78-0.94,1.2c-0.08,0.12-0.16,0.24-0.24,0.36
	c-0.27,0.44-0.61,0.81-0.96,1.19c-0.35,0.38-0.68,0.77-0.99,1.18c-0.19,0.25-0.37,0.51-0.57,0.75c-0.15,0.18-0.32,0.32-0.5,0.47
	c-0.33,0.29-0.68,0.58-0.97,0.91c-0.12,0.14-0.24,0.27-0.37,0.41c-0.45,0.5-0.84,1.08-1.24,1.62c-0.12,0.16-0.24,0.32-0.36,0.48
	c-0.25,0.34-0.54,0.65-0.8,0.99c-0.11,0.15-0.24,0.3-0.34,0.46c-0.19,0.31-0.36,0.66-0.47,1.01c-0.06,0.18-0.17,0.34-0.25,0.51
	c-0.09,0.18-0.15,0.37-0.25,0.54c-0.13,0.22-0.26,0.43-0.39,0.65c-0.07,0.13-0.15,0.24-0.18,0.38c-0.03,0.14-0.05,0.29-0.04,0.44
	c0.01,0.44,0.2,0.79,0.37,1.19c0.07,0.16,0.16,0.31,0.25,0.46c0.14,0.24,0.32,0.48,0.42,0.74c0.05,0.13,0.1,0.25,0.13,0.38
	c0.04,0.16,0.06,0.33,0.1,0.49c0.02,0.1,0.01,0.21,0.02,0.31c0.01,0.12,0.03,0.25,0.06,0.37c0.05,0.2,0.12,0.38,0.2,0.56
	c0.15,0.34,0.45,0.64,0.76,0.83c0.12,0.07,0.26,0.15,0.39,0.21c0.15,0.07,0.35,0.16,0.52,0.15c0.12-0.01,0.24-0.03,0.36-0.04
	l0.31-0.09c0.17,0.15,0.33,0.3,0.53,0.41c0.09,0.05,0.14,0.09,0.24,0.11c0.11,0.01,0.22,0.02,0.32,0.04
	c0.14,0.02,0.3,0.03,0.44,0.07c0.15,0.05,0.27,0.09,0.42,0.07c0.38-0.04,0.74-0.28,1.06-0.49c0.14-0.1,0.23-0.23,0.34-0.36
	c0.15-0.19,0.36-0.34,0.49-0.54c0.07-0.11,0.15-0.23,0.22-0.34c0.12-0.19,0.18-0.43,0.24-0.65c0.06-0.2,0.11-0.39,0.18-0.58
	c0.05-0.12,0.1-0.34,0.2-0.42c0.05-0.04,0.1-0.07,0.15-0.1c0.07-0.05,0.15-0.12,0.22-0.15c0.32-0.16,0.69-0.11,1.03-0.13
	c0.09-0.01,0.22,0.01,0.31-0.04c0.05-0.03,0.11-0.07,0.16-0.1c0.2-0.12,0.38-0.25,0.56-0.39c0.04-0.03,0.07-0.05,0.12-0.07
	c0.14-0.05,0.27-0.09,0.41-0.14c0.19-0.07,0.39-0.13,0.59-0.19c0.52-0.15,1.03-0.31,1.54-0.5c0.27-0.1,0.54-0.18,0.82-0.26
	c0.54-0.16,1.08-0.3,1.61-0.49c0.2-0.07,0.39-0.14,0.59-0.22c0.21-0.08,0.41-0.17,0.63-0.25c0.29-0.11,0.57-0.2,0.86-0.32
	c0.21-0.08,0.4-0.21,0.6-0.31c0.22-0.11,0.44-0.21,0.66-0.31c0.13-0.06,0.25-0.11,0.38-0.17c0.24-0.11,0.49-0.17,0.73-0.25
	c0.21-0.07,0.43-0.1,0.65-0.15c0.34-0.04,0.69-0.08,1.03-0.12c0.14-0.02,0.29-0.04,0.43-0.07c0.29-0.07,0.58-0.18,0.87-0.27
	c0.24-0.08,0.47-0.15,0.68-0.28c0.22-0.13,0.42-0.28,0.62-0.44c0.14-0.11,0.26-0.25,0.39-0.38c0.13-0.13,0.34-0.19,0.51-0.24
	c0.07-0.02,0.15-0.02,0.22-0.03c0.15-0.02,0.29-0.03,0.43-0.02c0.17,0.01,0.33,0,0.49,0.05c0.21,0.07,0.44,0.11,0.61,0.26
	c0.11,0.09,0.21,0.19,0.32,0.29c0.3,0.27,0.58,0.56,0.85,0.86c0.35,0.37,0.6,0.83,0.86,1.28c0.25,0.42,0.52,0.84,0.74,1.28
	c0.19,0.37,0.42,0.74,0.55,1.13c0.05,0.16,0.11,0.32,0.16,0.48c0.16,0.48,0.47,0.91,0.65,1.38c0.07,0.18,0.14,0.36,0.21,0.54
	c0.1,0.25,0.18,0.51,0.26,0.76c0.17,0.49,0.35,0.97,0.55,1.44c0.12,0.27,0.24,0.54,0.36,0.81c0.17,0.38,0.39,0.73,0.6,1.09
	c0.14,0.24,0.28,0.47,0.41,0.71c0.07,0.12,0.13,0.24,0.19,0.36c0.11,0.21,0.22,0.43,0.33,0.64c0.27,0.54,0.52,1.1,0.77,1.66
	c0.12,0.26,0.27,0.5,0.39,0.76c0.13,0.26,0.24,0.54,0.36,0.81c0.07,0.15,0.13,0.31,0.2,0.46c0.1,0.21,0.21,0.42,0.26,0.65
	c0.06,0.23,0.08,0.46,0.09,0.69c0.01,0.13,0.01,0.27,0.01,0.4c0.01,0.58,0.01,1.17-0.02,1.74c-0.03,0.4-0.05,0.8-0.06,1.2
	c0,0.2,0.01,0.39-0.01,0.59c-0.05,0.55-0.1,1.1-0.17,1.66c-0.03,0.22-0.04,0.44-0.06,0.66c-0.01,0.23-0.03,0.45-0.04,0.68
	c-0.03,0.38,0.02,0.75,0.04,1.13c0.02,0.35,0.03,0.7,0.07,1.05c0.07,0.68,0.15,1.35,0.25,2.02c0.03,0.19,0.06,0.39,0.1,0.58
	c0.03,0.17,0.06,0.35,0.09,0.52C46.52,72.57,43.32,73.07,40,73.07z"/>
</svg>
