<?xml version="1.0" encoding="utf-8"?>
<!-- Generator: Adobe Illustrator 23.0.1, SVG Export Plug-In . SVG Version: 6.00 Build 0)  -->
<svg version="1.1" id="Layer_1" xmlns="http://www.w3.org/2000/svg" xmlns:xlink="http://www.w3.org/1999/xlink" x="0px" y="0px"
	 viewBox="0 0 80 80" style="enable-background:new 0 0 80 80;" xml:space="preserve">
<style type="text/css">
	.st0{fill:#293940;}
</style>
<path class="st0" d="M40,0.5C18.2,0.5,0.5,18.2,0.5,40c0,21.8,17.7,39.5,39.5,39.5c21.8,0,39.5-17.7,39.5-39.5
	C79.5,18.2,61.8,0.5,40,0.5z M40,73.1C21.7,73.1,6.9,58.3,6.9,40S21.7,6.9,40,6.9c18.3,0,33.1,14.8,33.1,33.1S58.3,73.1,40,73.1z"/>
<path class="st0" d="M36.3,35.8c0.4,0.8,1.2,2,2.6,3.6c2.7,3.2,5,3.8,5,3.8s-0.1-0.4,0.4-0.6c0.5-0.2,0.8,0,0.8,0s-0.2-0.5,0.3-0.7
	c0.5-0.2,1.2,0,1.2,0s-0.2-0.6,0.1-0.7c0.3-0.1,1.2-0.1,1.2-0.1s-0.1-0.7,0.4-0.8l0.4-0.1c0,0-5.6-2.2-6.6-3.1
	c4.1,1.1,7.3,2.5,10.3,4.6l0.9,7.5c0.5-1.1,1.1-1.5,1.9-1.1c0.3-0.7,0.7-0.9,1.3-0.6c0.1-0.6,0.5-0.8,1.1-0.6c0,0-0.7-1.1-1.3-2
	c4.5,4.3,7.1,8.7,5.5,13.1c-1.7,4.5-5.2,1.4-6,0.2c-0.8-1.2,0.2-2.7-1.1-3c-1.3-0.3-1.5,3.8-4.2,6.8c-2.7,3-6.4,3.6-5.4,4.6
	c1.1,1,8.5,1.1,12.9-1.5c4.4-2.6,11.6-10.2,9.6-21.3c-1.3-7.6-4.4-14.5-9.9-19.3c2.8-0.6,9.2,0.5,9.2,0.5s-1.2-1-2.4-1.8
	c-1.2-0.8-0.6-0.9-1.7-1.8c-0.5-0.4-2.5-0.6-1-1.7c-0.6-0.3-0.3-1.6-2.1-2c-0.9-0.3,0.3-1.2,0.3-1.2s0.2-0.2-4.4,0.8
	c-2.6,0.6-4.3,1.7-5.3,2.5c-0.6-0.2-1.2-0.5-1.8-0.7c-11-3.8-18.7-2.4-24.2-0.1c-5.5,2.2-10.2,8.6-11.3,9.8c-1,1.2-0.9,1.5-0.4,1.9
	c0.3,0.3,1.2,0.1,1.2,0.1c2.3,0.6,7,0.5,8.1,1.4c-1.2,1-2.9,2.2-3.4,2c-1.2-0.5-3.8-0.9-3.8-0.9s-0.1,0.5,1,1.4
	c1.1,0.9,3.7,1.6,6.3,1.7c2.6,0.1,2-0.9,4.5-0.7C28.4,36,31,35.1,36.3,35.8z"/>
</svg>
