<?xml version="1.0" encoding="utf-8"?>
<!-- Generator: Adobe Illustrator 23.0.1, SVG Export Plug-In . SVG Version: 6.00 Build 0)  -->
<svg version="1.1" id="Layer_1" xmlns="http://www.w3.org/2000/svg" xmlns:xlink="http://www.w3.org/1999/xlink" x="0px" y="0px"
	 viewBox="0 0 80 80" style="enable-background:new 0 0 80 80;" xml:space="preserve">
<style type="text/css">
	.st0{fill:none;}
	.st1{fill:#3D1311;}
</style>
<g>
	<path class="st0" d="M60,14.1c-0.2,0.7-0.5,1.5-0.7,1.9c-0.6,1.3-1.8,2.6-2.7,3.7c-2.1,2.7-4.9,4.9-7.9,6.6l3.9-1.6
		c0.3-0.1,0.6,0,0.8,0.2c0.1,0.2,0.2,0.4,0.1,0.6c-0.2,1.3-1.1,5.3-3.1,7.2c-0.3,0.3-0.7,0.5-1.1,0.6c-0.6,0.1-1.1,0.3-1.5,0.4
		c0.5,2.7,1.1,5.5,1.8,8.3c1.2,2.5,3.5,6.2,7.1,6.3c1.5,0,2.9-0.5,4.4-1.1c0.6-0.3,1.3-0.5,2-0.7c1.7-0.6,3.6-0.8,5.7-0.8
		c1.3,0,2.7,0.1,4,0.3c0.3-1.8,0.4-3.6,0.4-5.4C73.1,29.7,67.9,20.2,60,14.1z"/>
	<path class="st0" d="M45.3,71.7c-0.6-0.9-0.8-1.9-1-2.9c-0.1-0.5-0.2-0.9-0.3-1.3c-0.4-1.1-1-2.1-1.7-3.2c-0.2-0.3-0.4-0.7-0.6-1
		c-3.7-5.9-4.6-13.8-5-20c-0.8-0.2-3.6-0.3-4.5-0.3c-0.2,0-0.4,0-0.6,0c-2.2-0.1-4.3-0.5-6.4-1.2l-0.2-0.1c-0.5-0.2-1-0.3-1.5-0.4
		c-0.3,0-0.7,0-1.1,0c-0.8,0-1.7,0.3-2.5-0.1c-0.5-0.2-0.9-0.6-1.2-0.9c-0.8-0.8-1.3-0.9-1.6-1.8c-0.4-1.1-0.3-2.2,0.2-3.1
		c0.9-1.6,2.8-2,4.3-2.3l0.2,0c1.3-0.3,2.6-0.7,3.9-1.1l4.8-1.5c0.7-0.2,1.4-0.4,2-0.8c0.2-0.1,0.4-0.2,0.6-0.4
		c0.4-0.3,0.9-0.7,1.6-0.8c0.5-0.1,0.9-0.1,1.3-0.2c0.3,0,0.6,0,0.8-0.1c0.5-0.1,1-0.4,1.5-0.7c0.1-0.1,0.3-0.2,0.4-0.2
		c-0.4-0.6-0.5-1.1-0.5-1.1c-1.6-1.8-2.1-4.5-1.2-6.8c0.1-0.4,0.4-0.8,0.8-0.8c0.2,0-1.7,4.6,2.6,7c1.4,0.8,3.1,1,4.7,0.6
		c1.3-0.4,2.6-1,3.7-1.8c0.4-0.3,0.9-0.6,1-1.1c0.2-0.6-0.1-1.3-0.3-1.9c-0.7-1.7-1.4-3.5-1.6-5.4c-0.2-1.7,0.2-3.6,1.3-4.9
		c0.1-0.1,0.2,0,0.2,0.1c-0.2,2.8,0.2,5.7,1.4,8.3c0.2,0.4,0.4,0.7,0.8,0.9c1,0.7,1.8,0,2.5-0.6c1.3-1.3,2.5-2.7,3.4-4.2
		c0.5-0.7,0.9-1.6,0.9-2.4c0-0.2,0-0.3,0-0.5C52.9,9.4,46.7,7.4,40,7.4C21.7,7.4,6.9,22.2,6.9,40.5S21.7,73.6,40,73.6
		c2.2,0,4.3-0.2,6.3-0.6C45.9,72.6,45.6,72.2,45.3,71.7z"/>
	<path class="st1" d="M60.7,6.9c-0.6-0.3-1.1-0.7-1.7-1c-0.7-0.4-1.4-0.7-2.1-1.1c-0.4-0.2-0.8-0.4-1.2-0.5C50.9,2.2,45.6,1,40,1
		C18.2,1,0.5,18.7,0.5,40.5C0.5,62.3,18.2,80,40,80c0,0,0,0,0,0c19.7,0,36-14.4,39-33.2c0.3-2.1,0.5-4.2,0.5-6.3
		C79.5,26.3,72,13.8,60.7,6.9z M6.9,40.5C6.9,22.2,21.7,7.4,40,7.4c6.7,0,12.9,2,18.2,5.4c0,0.2,0,0.3,0,0.5c0,0.9-0.5,1.7-0.9,2.4
		c-1,1.5-2.1,3-3.4,4.2c-0.7,0.6-1.5,1.3-2.5,0.6c-0.3-0.2-0.6-0.6-0.8-0.9c-1.2-2.6-1.7-5.5-1.4-8.3c0-0.1-0.1-0.2-0.2-0.1
		c-1.1,1.4-1.4,3.2-1.3,4.9c0.2,1.9,0.9,3.6,1.6,5.4c0.3,0.6,0.5,1.3,0.3,1.9c-0.2,0.5-0.6,0.8-1,1.1c-1.1,0.8-2.4,1.5-3.7,1.8
		c-1.6,0.4-3.2,0.2-4.7-0.6c-4.3-2.3-2.4-7-2.6-7c-0.4,0-0.7,0.4-0.8,0.8c-0.9,2.3-0.4,5,1.2,6.8c0,0,0.2,0.5,0.5,1.1
		c-0.1,0.1-0.3,0.2-0.4,0.2c-0.5,0.3-1,0.6-1.5,0.7c-0.2,0-0.5,0.1-0.8,0.1c-0.4,0-0.9,0-1.3,0.2c-0.6,0.2-1.1,0.5-1.6,0.8
		c-0.2,0.1-0.4,0.3-0.6,0.4c-0.6,0.3-1.3,0.6-2,0.8l-4.8,1.5c-1.3,0.4-2.6,0.8-3.9,1.1l-0.2,0c-1.5,0.3-3.4,0.7-4.3,2.3
		c-0.5,0.9-0.6,2-0.2,3.1c0.3,0.8,0.8,1,1.6,1.8c0.3,0.3,0.7,0.7,1.2,0.9c0.8,0.4,1.7,0.1,2.5,0.1c0.4,0,0.8,0,1.1,0
		c0.5,0,1,0.2,1.5,0.4l0.2,0.1c2.1,0.6,4.2,1,6.4,1.2c0.2,0,0.4,0,0.6,0c0.9,0,3.7,0.1,4.5,0.3c0.4,6.2,1.3,14.1,5,20
		c0.2,0.3,0.4,0.7,0.6,1c0.7,1.1,1.4,2.1,1.7,3.2c0.1,0.4,0.2,0.8,0.3,1.3c0.2,1,0.4,2,1,2.9c0.3,0.5,0.7,0.9,1.1,1.2
		c-2,0.4-4.2,0.6-6.3,0.6C21.7,73.6,6.9,58.8,6.9,40.5z M72.6,45.9c-1.3-0.2-2.7-0.3-4-0.3c-2.1,0-4,0.3-5.7,0.8
		c-0.7,0.2-1.3,0.5-2,0.7c-1.5,0.6-2.9,1.2-4.4,1.1c-3.6-0.1-5.9-3.7-7.1-6.3c-0.7-2.8-1.3-5.6-1.8-8.3c0.4-0.1,0.9-0.3,1.5-0.4
		c0.4-0.1,0.8-0.3,1.1-0.6c2-1.8,2.9-5.9,3.1-7.2c0-0.2,0-0.4-0.1-0.6c-0.2-0.2-0.5-0.3-0.8-0.2l-3.9,1.6c3-1.8,5.8-3.9,7.9-6.6
		c0.9-1.2,2.1-2.4,2.7-3.7c0.2-0.5,0.5-1.2,0.7-1.9c8,6,13.1,15.6,13.1,26.4C73.1,42.3,72.9,44.1,72.6,45.9z"/>
</g>
</svg>
