<?xml version="1.0" encoding="utf-8"?>
<!-- Generator: Adobe Illustrator 23.0.1, SVG Export Plug-In . SVG Version: 6.00 Build 0)  -->
<svg version="1.1" id="Layer_1" xmlns="http://www.w3.org/2000/svg" xmlns:xlink="http://www.w3.org/1999/xlink" x="0px" y="0px"
	 viewBox="0 0 80 80" style="enable-background:new 0 0 80 80;" xml:space="preserve">
<style type="text/css">
	.st0{fill:#3D1311;}
</style>
<g>
	<path class="st0" d="M29.3,48.3c-1.1,1.6-3,2.7-4.7,3.6c-0.3,0.2-0.7,0.5-1,0.7c-0.3,0.3-0.6,0.5-0.9,0.8c-1.4,1.4-2.6,3.1-3.3,5.1
		c1.2-2,2.9-3.4,4.7-4.4c0.4-0.2,0.8-0.4,1.1-0.6c2.6-0.3,5.5-0.8,7.3-2.3C31.4,50.4,30.2,49.4,29.3,48.3z"/>
	<path class="st0" d="M39.6,53.2c-0.5,0-1,0-1.4-0.1c0.4,1.9-0.2,4-0.7,5.8c-0.1,0.4-0.1,0.8-0.2,1.2c0,0.4,0,0.8,0,1.2
		c0,2,0.3,4,1.3,5.9c-0.6-2.3-0.4-4.4,0.2-6.4c0.1-0.4,0.2-0.8,0.4-1.2c1.6-2.1,3.3-4.5,3.6-6.8C41.6,53.1,40.6,53.2,39.6,53.2z"/>
	<path class="st0" d="M47.9,48.3c9.2-12.1-4.5-25.8-16.6-16.6c0,0,0,0,0,0C22.1,43.8,35.8,57.5,47.9,48.3z"/>
	<path class="st0" d="M47,29.1C47,29.1,47,29.1,47,29.1c1.1,0.7,2.1,1.6,2.9,2.6c1.1-1.6,3-2.7,4.7-3.6c0.3-0.2,0.7-0.5,1-0.7
		c0.3-0.3,0.6-0.5,0.9-0.8c1.4-1.4,2.6-3.1,3.3-5.1c-1.2,2-2.9,3.4-4.7,4.4c-0.4,0.2-0.7,0.4-1.1,0.6c-2.4,0.3-5.1,0.8-7,2.1
		c-0.4-3.1,1.7-5.8,3.5-8c0.3-0.4,0.5-0.8,0.7-1.2c0.2-0.4,0.4-0.9,0.6-1.3c0.9-2.2,1.4-4.5,1.2-6.9c-0.4,2.7-1.6,4.9-3.1,6.8
		c-0.3,0.4-0.6,0.8-1,1.1c-3.3,1.9-7.2,4.4-7.6,7.9C43.4,27.2,45.3,28,47,29.1z"/>
	<path class="st0" d="M31.4,18.6c-1,3.7-2,8.2,0.2,10.9c0.9-0.7,1.9-1.3,2.9-1.7c0.8-0.3,1.7-0.6,2.5-0.8c0,0,0,0,0,0
		c0.8-0.2,1.7-0.3,2.5-0.3c0.5,0,1,0,1.4,0.1c-0.4-1.9,0.2-4,0.7-5.8c0.1-0.4,0.1-0.8,0.2-1.2c0-0.4,0-0.8,0-1.2c0-2-0.3-4-1.3-5.9
		c0.6,2.3,0.4,4.4-0.2,6.4c-0.1,0.4-0.2,0.8-0.4,1.2c-1.5,2-3.1,4.2-3.5,6.4c-2.4-1.9-2.9-5.3-3.2-8.1c-0.1-0.5-0.2-0.9-0.4-1.4
		c-0.2-0.5-0.3-0.9-0.5-1.3c-0.9-2.2-2.1-4.2-4-5.8c1.6,2.2,2.3,4.6,2.7,7C31.4,17.6,31.4,18.1,31.4,18.6z"/>
	<path class="st0" d="M10.7,26.6c2.7,0.4,4.9,1.6,6.8,3.1c0.4,0.3,0.8,0.6,1.1,1c1.9,3.3,4.4,7.2,7.9,7.6c0.3-2,1-3.9,2.1-5.6
		c0,0,0,0,0,0c0.7-1.1,1.6-2.1,2.7-2.9c-1.6-1.1-2.7-3-3.6-4.7c-0.2-0.3-0.5-0.7-0.7-1c-0.3-0.3-0.5-0.6-0.8-0.9
		c-1.4-1.4-3.1-2.6-5.1-3.3c2,1.2,3.4,2.9,4.4,4.7c0.2,0.4,0.4,0.7,0.6,1.1c0.3,2.4,0.8,5.1,2.1,7c-3.1,0.4-5.8-1.7-8-3.5
		c-0.4-0.3-0.8-0.5-1.2-0.7c-0.4-0.2-0.9-0.4-1.3-0.6C15.5,27,13.2,26.5,10.7,26.6"/>
	<path class="st0" d="M9.7,51c2.2-1.6,4.6-2.3,7-2.7c0.5-0.1,1-0.1,1.5-0.1c3.7,1,8.2,2,10.9-0.2c-0.7-0.9-1.3-1.9-1.7-2.9
		c-0.3-0.8-0.6-1.7-0.8-2.5c0,0,0,0,0,0c-0.2-0.8-0.3-1.7-0.3-2.5c0-0.5,0-1,0.1-1.4c-1.9,0.4-4-0.2-5.8-0.7
		c-0.4-0.1-0.8-0.1-1.2-0.2c-0.4,0-0.8,0-1.2,0c-2,0-4,0.3-5.9,1.3c2.3-0.6,4.4-0.4,6.4,0.2c0.4,0.1,0.8,0.2,1.2,0.4
		c2,1.5,4.2,3.1,6.4,3.5c-1.9,2.4-5.3,2.9-8.1,3.2c-0.5,0.1-0.9,0.2-1.4,0.4c-0.5,0.2-0.9,0.3-1.3,0.5C13.3,47.8,11.3,49.1,9.7,51"
		/>
	<path class="st0" d="M28.8,59.4c-0.3,0.4-0.5,0.8-0.7,1.2c-0.2,0.4-0.4,0.9-0.6,1.3c-0.9,2.2-1.4,4.5-1.2,6.9
		c0.4-2.7,1.6-4.9,3.1-6.8c0.3-0.4,0.6-0.8,1-1.1c3.3-1.9,7.2-4.4,7.6-7.9c-2-0.3-3.9-1-5.6-2.1C32.9,54.2,30.7,57.1,28.8,59.4z"/>
	<path class="st0" d="M47.8,61.4c1-3.7,2-8.2-0.2-10.9c-0.9,0.7-1.9,1.3-2.9,1.7c-0.8,0.3-1.7,0.6-2.5,0.8c2.8,1.9,3.3,5.4,3.6,8.4
		c0.1,0.5,0.2,0.9,0.4,1.4c0.2,0.5,0.3,0.9,0.5,1.3c0.9,2.2,2.1,4.2,4,5.8c-1.6-2.2-2.3-4.6-2.7-7C47.8,62.4,47.8,61.9,47.8,61.4z"
		/>
	<path class="st0" d="M60.5,49.3c-1.9-3.3-4.4-7.2-7.9-7.6c-0.3,2-1,3.9-2.1,5.6c0,0,0,0,0,0c-0.7,1.1-1.6,2.1-2.7,2.9
		c1.6,1.1,2.7,3,3.6,4.7c0.2,0.3,0.5,0.7,0.7,1c0.3,0.3,0.5,0.6,0.8,0.9c1.4,1.4,3.1,2.6,5.1,3.3c-2-1.2-3.4-2.9-4.4-4.7
		c-0.2-0.4-0.4-0.7-0.6-1.1c-0.3-2.4-0.8-5.1-2.1-7c3.1-0.4,5.8,1.7,8,3.5c0.4,0.3,0.8,0.5,1.2,0.7c0.4,0.2,0.9,0.4,1.3,0.6
		c2.2,0.9,4.5,1.4,6.9,1.2c-2.7-0.4-4.9-1.6-6.8-3.1C61.2,50,60.9,49.7,60.5,49.3z"/>
	<path class="st0" d="M62.5,31.7c-0.5,0.1-1,0.1-1.5,0.1c-3.7-1-8.2-2-10.9,0.2c0.7,0.9,1.3,1.9,1.7,2.9c0.3,0.8,0.6,1.7,0.8,2.5
		c0,0,0,0,0,0c0.2,0.8,0.3,1.7,0.3,2.5c0,0.5,0,1-0.1,1.4c1.9-0.4,4,0.2,5.8,0.7c0.4,0.1,0.8,0.1,1.2,0.2c0.4,0,0.8,0,1.2,0
		c2,0,4-0.3,5.9-1.3c-2.3,0.6-4.4,0.4-6.4-0.2c-0.4-0.1-0.8-0.2-1.2-0.4c-2-1.5-4.2-3.1-6.4-3.5c1.9-2.4,5.3-2.9,8.1-3.2
		c0.5-0.1,0.9-0.2,1.4-0.4c0.5-0.2,0.9-0.3,1.3-0.5c2.2-0.9,4.2-2.1,5.8-4C67.2,30.7,64.9,31.4,62.5,31.7z"/>
</g>
<path class="st0" d="M40,0.5C18.2,0.5,0.5,18.2,0.5,40c0,21.8,17.7,39.5,39.5,39.5c21.8,0,39.5-17.7,39.5-39.5
	C79.5,18.2,61.8,0.5,40,0.5z M40,73.1C21.7,73.1,6.9,58.3,6.9,40S21.7,6.9,40,6.9c18.3,0,33.1,14.8,33.1,33.1S58.3,73.1,40,73.1z"/>
</svg>
