<?xml version="1.0" encoding="utf-8"?>
<!-- Generator: Adobe Illustrator 23.0.1, SVG Export Plug-In . SVG Version: 6.00 Build 0)  -->
<svg version="1.1" id="Layer_1" xmlns="http://www.w3.org/2000/svg" xmlns:xlink="http://www.w3.org/1999/xlink" x="0px" y="0px"
	 viewBox="0 0 80 80" style="enable-background:new 0 0 80 80;" xml:space="preserve">
<style type="text/css">
	.st0{fill:#293940;}
</style>
<path class="st0" d="M17.6,18.3c0.1-0.3,0.7-0.1,0.9-0.1c0.6,0.1,1.2,0.3,1.8,0.5c-0.3-0.3-0.6-0.6-0.8-0.9
	c-0.2-0.3-0.3-0.6,0.2-0.5c0.7,0.2,1.5,0.7,2.1,1.1c0.4,0.2,0.9,0.5,1.2,0.9l0,0c-0.3-0.4-0.6-0.7-0.8-1.1c-0.1-0.1-0.6-0.7-0.3-0.9
	c0.1-0.1,0.4,0.1,0.5,0.1c0.3,0.2,0.6,0.4,0.9,0.6c0.4,0.3,0.9,0.6,1.2,1c-0.1-0.4-0.2-0.7-0.3-1.1c0-0.2-0.2-0.9,0.2-0.8
	c0.4,0.1,0.8,0.6,1.1,0.9c0.3,0.4,0.6,0.8,0.9,1.2c0-0.3,0.1-0.5,0.1-0.8c0-0.2,0-0.9,0.3-0.8c0.3,0,0.5,0.8,0.6,1
	c0.1,0.4,0.2,0.8,0.3,1.2c0.1-0.2,0.2-0.5,0.3-0.7c0.1-0.2,0.3-0.7,0.7-0.6c0.3,0.1,0.5,0.5,0.6,0.8c0.1,0.3,0.1,0.5,0.2,0.8
	c0.3-0.2,0.6-0.4,0.8-0.2c0.3,0.2,0.4,0.5,0.4,0.9c0.3-0.2,0.6-0.3,0.9-0.1c0.3,0.1,0.4,0.5,0.4,0.8c0.4-0.2,1-0.5,1.3-0.2
	c0.3,0.2,0.2,0.6,0,0.9c0.1,0,0.3-0.1,0.4-0.1c0.2-0.1,0.5-0.2,0.7-0.1c0.3,0.1,0.4,0.5,0.4,0.8c0.3-0.2,0.9-0.4,1.2-0.2
	c0.3,0.1,0.4,0.5,0.4,0.8c0.4-0.1,0.9-0.3,1.1-0.1c0.1,0.1,0.2,0.4,0.2,0.6c0,0.1,0,0.2,0,0.3c0.4-0.1,0.9-0.2,1.3,0.1
	c0.3,0.2,0.3,0.5,0.3,0.8c0.2,0,0.4,0,0.6,0c0.1,0,0.4,0.1,0.5,0.2c0.2,0.2,0.2,0.7,0.2,1c0.4-0.1,0.9-0.3,1.2,0
	c0.1,0.1,0.2,0.3,0.1,0.4c0,0.1,0,0.3,0,0.5c0.5-0.1,1-0.2,1.2,0c0.2,0.3,0.1,0.7,0.1,1c0.2,0,0.4,0,0.6,0c0.1,0,0.4,0,0.5,0.1
	c0.2,0.2,0.1,0.6,0.1,0.9c0.2,0,0.3-0.1,0.5-0.1c0.2,0,0.5-0.1,0.7,0.1c0.2,0.2,0.1,0.8-0.1,1.1c0.2,0,0.4,0,0.6,0.1
	c0.2,0,0.5,0.1,0.7,0.3c0.1,0.3,0,0.6-0.2,0.9c0.1,0,0.1,0,0.2,0c0.2,0,0.3,0,0.4,0.2c0.1,0.1,0.1,0.3,0.1,0.4l5-3
	c0.3-0.3,0.6-0.6,0.9-0.8c0.3-0.2,0.8-0.1,1,0.2c0.4-0.2,0.9-0.2,0.9,0.3c0.3-0.1,0.6-0.1,0.9,0c0.3,0.1,0.6,0.3,0.5,0.6
	c0.4-0.2,0.7-0.4,1.1-0.2c0.1,0,0.4,0.2,0.5,0.3c0.1,0.2,0,0.4-0.1,0.6c0.5-0.2,0.9-0.4,1.4-0.2c0.4,0.1,0.3,0.6,0.2,1
	c0.4-0.2,0.9-0.3,1.3-0.1c0.4,0.2,0.3,0.7,0.2,1c0.4,0,0.9,0,1,0.3c0.1,0.3-0.2,0.9-0.4,1.1c0.3,0,0.8,0.1,0.7,0.5
	c0,0.3-0.3,0.5-0.6,0.7c0.4,0.2,0.6,0.4,0.3,0.9c-0.2,0.3-0.6,0.4-1,0.5c0,0.1,0.1,0.2,0.1,0.3c0,0.2-0.2,0.4-0.3,0.5
	c-0.2,0.1-0.5,0.2-0.7,0.1c0,0.1-0.1,0.2-0.2,0.3c-0.1,0.1-0.2,0.2-0.4,0.2l-7.2-1.2c0,0.1-0.1,0.2-0.1,0.3c0,0.1,0.2,0,0.3,0.1
	c0,0.1,0,0.1,0,0.2c0.1,0,0.2,0,0.3,0c0,0.1,0,0.1,0,0.2c0.3,0,0.6,0,0.7,0.2c0.2,0,0.4,0.1,0.6,0c0.2,0,0.3-0.2,0.4-0.4
	c0.2,0.2-0.1,0.7-0.2,0.8c-0.1,0.2-0.4,0.2-0.6,0.3c0.2,0.1,0.4,0.2,0.5,0.2c0,0.1-0.1,0.1-0.1,0.2c0.1,0,0.3-0.1,0.4,0
	c0,0.1-0.1,0.2-0.1,0.4c0.2,0,0.3-0.2,0.5-0.1c0,0.1-0.1,0.2-0.1,0.3c0.2,0,0.3-0.1,0.5-0.1c0,0.2-0.3,0.3-0.3,0.5
	c0.1,0,0.3,0.1,0.3,0.1c0,0.1-0.3,0.2-0.3,0.3c0.1,0,0.2,0.1,0.3,0.1c0,0.2-0.3,0.2-0.3,0.4c0,0,0.1,0,0.1,0c-0.2,0.2-0.3,0.3,0,0.4
	c0,0.1-0.1,0.2-0.2,0.2c0.1,0.1,0.2,0.2,0.2,0.3c0.1,0.1,0.1,0.2,0.2,0.3c0,0,0.1,0.1,0.2,0.1c0.2-0.2,0.4-0.4,0.6-0.7
	c0.1-0.2,0.2-0.4,0.4-0.5c0.1-0.1,0.3-0.2,0.5-0.1c0.3-0.3,0.8-0.4,1.2-0.2c0,0,0,0,0,0.1c-0.2,0-0.5,0.1-0.7,0.3
	c0,0.2-0.1,0.3-0.2,0.4c-0.1,0.1-0.3,0.2-0.4,0.3c-0.2,0.2-0.3,0.3-0.3,0.6c0,0.1-0.1,0.2-0.1,0.3c0.2,0.4-0.1,0.8,0,1.2
	c0,0.2,0.1,0.5,0.1,0.8l0,0c0.1,0.2,0.3,0.3,0.4,0.5c0,0.1,0.1,0.3,0.1,0.5c0.2,0.3,0.2,0.6,0.6,0.7c-0.3,0-0.6,0-0.8-0.2
	c-0.1,0.2-0.2,0.2-0.2,0.5c0,0.1,0,0.4-0.2,0.4c0,0.2-0.1,0.5,0.1,0.5c-0.3-0.1-0.5-0.3-0.4-0.6c-0.1-0.1-0.2-0.4-0.2-0.6
	c0-0.1,0-0.2,0-0.3c-0.2-0.2-0.2-0.5-0.2-0.7c-0.6-0.2-0.4-1-0.2-1.6c-0.1-0.2-0.3-0.5-0.4-0.6c-0.1-0.2-0.3-0.4-0.5-0.5
	c-0.1-0.1-0.2-0.2-0.3-0.3c-0.1,0.1-0.1,0.3-0.1,0.4c0,0-0.2-0.2-0.2-0.2c-0.1,0-0.1,0.1-0.1,0.2c-0.1,0-0.2-0.1-0.4-0.1
	c0,0.1-0.1,0.3-0.2,0.5c0.2,0.1,0.4,0.3,0.5,0.6c0.1,0.3-0.1,0.5-0.3,0.6c0.2,0.2,0.4,0.4,0.4,0.6c0,0.2-0.1,0.3-0.3,0.4
	c0.2,0.2,0.3,0.4,0.4,0.6c0,0.2,0,0.4-0.1,0.5c-0.1,0.1-0.1,0.1-0.2,0.2c0.2,0.2,0.4,0.4,0.3,0.7c0,0.2,0,0.3-0.2,0.4
	c-0.1,0-0.2,0-0.3,0c0.2,0.2,0.3,0.5,0.4,0.8c0.1,0.4-0.1,0.5-0.4,0.4c0.2,0.3,0.3,0.7,0.3,1c0,0.5-0.5,0.4-0.9,0.3
	c0.1,0.3,0.3,0.6,0.4,1c0.1,0.5-0.2,0.6-0.6,0.5c0.1,0.2,0.3,0.4,0.4,0.6c0.2,0.3,0.6,0.6,0.7,1c0.1,0.4-0.3,0.3-0.6,0.3
	c-0.3,0-0.7-0.1-1-0.2c0.3,0.3,0.5,0.7,0.8,1c0.3,0.4,0.7,0.8,0.8,1.3c0.1,0.7-0.7,0.4-1.4,0.1c0.1,0.2,0.2,0.4,0.4,0.6
	c0.2,0.3,0.5,0.7,0.6,1.1c0.1,0.3-0.1,0.4-0.3,0.5c-0.2,0-0.4,0-0.6,0c0.5,0.8,1.1,1.6,1.3,2.5c0.1,0.5-0.3,0.5-0.6,0.3
	c-0.4-0.1-0.8-0.4-1.1-0.6c0.5,1,1.1,2,1.4,3.1c0.1,0.3,0.2,0.7,0.3,1c0,0.1,0.1,0.5,0,0.6c-0.3,0.3-1.1-0.7-1.3-0.8
	c-0.5-0.5-1-1.1-1.4-1.7c0.1,0.4,0.2,0.8,0.3,1.2c0.2,0.8,0.3,1.7,0.3,2.6c0,0.3,0,1.5-0.4,1.5c-0.2,0-0.4-0.3-0.5-0.5
	c-0.3-0.4-0.5-0.8-0.7-1.2c-0.3-0.6-0.6-1.2-0.9-1.8c0.1,1.3,0.1,2.7-0.3,4c-0.1,0.2-0.3,1.1-0.7,0.9c-0.2-0.1-0.3-0.4-0.4-0.6
	c-0.2-0.4-0.3-0.9-0.4-1.4c-0.3-1.1-0.6-2.2-0.9-3.3c-0.2,1.2-0.5,2.4-1.1,3.5c-0.2,0.4-1.5,2.9-1.8,1.5c-0.1-0.5-0.1-1-0.1-1.5
	c0-0.5,0-1,0-1.5c-0.5,1.1-1.2,2.2-2.1,3c-0.3,0.3-0.9,0.6-1.3,0.4c-0.4-0.2-0.2-0.8-0.1-1.1c0.3-1.1,0.7-2.2,1.1-3.3
	c-0.3,0.3-0.7,0.5-1,0.8c-0.4,0.2-0.9,0.6-1.4,0.6c-0.9,0,0.4-1.5,0.6-1.7c1.3-1.7,2.3-3.5,3-5.6c0.3-0.9,0.6-1.8,0.8-2.7
	c-0.1,0-0.2,0-0.3-0.1c-0.3-0.2-0.5-0.7-0.6-1c-0.3-1.1-0.5-2.3-0.4-3.4c-0.5,0.2-1-0.6-1.1-1c-0.2-0.6-0.1-1.1-0.1-1.7
	c0-0.5,0.1-0.9,0.2-1.3c-0.1-0.2-0.2-0.4-0.3-0.5c-0.2-0.4-0.4-0.9-0.6-1.4c-0.4-1.1-0.7-2.2-0.8-3.3c0-0.3-0.1-0.7-0.1-1
	c-0.8-0.2-1.7-0.2-2.5-0.2c-1-0.1-1.9-0.5-2.9-0.8c-0.9-0.3-1.8-0.3-2.7-0.4c-0.4,0-0.9-0.1-1.3-0.1c-0.3-0.1-0.7-0.2-1-0.3
	c-0.6-0.1-1.1-0.3-1.6-0.6c-0.2,0.1-0.6,0.1-0.8,0.1c-0.3,0-0.6,0.2-0.8,0.4c-0.2-0.2,0.3-1,0.4-1.1c0.1-0.2,0.3-0.4,0.5-0.5
	c0-0.2,0.1-0.5,0.2-0.7c0.2-0.2,0.4-0.5,0.6-0.6c1-0.7,2.3-0.9,3.4-1.2c0.7-0.2,1.4-0.4,2.1-0.7c0.6-0.2,1.2-0.4,1.7-0.8
	c0-1-0.6-1.8-1.3-2.5c-0.9-0.8-1.9-1.3-2.8-2.1c-0.3-0.3-0.5-0.7-0.5-1.1c-0.3-0.3-0.6-0.5-0.9-0.7c-0.5-0.4-1-0.8-1.4-1.2
	c-0.7-0.8-1.4-1.5-2-2.4c-0.1-0.2-0.2-0.4-0.3-0.6c0-0.1,0-0.1,0-0.2c-1.7-0.6-5.9-2.1-6.2-2.2c-0.1-0.1-0.4-0.3-0.2-0.5
	c0,0,0,0,0,0c-0.3-0.2-0.7-0.4-1-0.6C17.8,18.8,17.5,18.5,17.6,18.3z"/>
<path class="st0" d="M40,0.5C18.2,0.5,0.5,18.2,0.5,40c0,21.8,17.7,39.5,39.5,39.5c21.8,0,39.5-17.7,39.5-39.5
	C79.5,18.2,61.8,0.5,40,0.5z M40,73.1C21.7,73.1,6.9,58.3,6.9,40S21.7,6.9,40,6.9c18.3,0,33.1,14.8,33.1,33.1S58.3,73.1,40,73.1z"/>
</svg>
