<?xml version="1.0" encoding="utf-8"?>
<!-- Generator: Adobe Illustrator 23.0.1, SVG Export Plug-In . SVG Version: 6.00 Build 0)  -->
<svg version="1.1" id="Layer_1" xmlns="http://www.w3.org/2000/svg" xmlns:xlink="http://www.w3.org/1999/xlink" x="0px" y="0px"
	 viewBox="0 0 80 80" style="enable-background:new 0 0 80 80;" xml:space="preserve">
<style type="text/css">
	.st0{fill:#D8C693;}
</style>
<path class="st0" d="M40,0.5C18.2,0.5,0.5,18.2,0.5,40c0,21.8,17.7,39.5,39.5,39.5c21.8,0,39.5-17.7,39.5-39.5
	C79.5,18.2,61.8,0.5,40,0.5z M40,73.1C21.7,73.1,6.9,58.3,6.9,40S21.7,6.9,40,6.9c18.3,0,33.1,14.8,33.1,33.1S58.3,73.1,40,73.1z"/>
<g>
	<path class="st0" d="M32.7,47.3c0.2-0.6,0-2,1-3.5c-0.9,0-2.3,0-3.4,0.1c-6.1,3.7-1.9,11.2-5,12.7c-1.6,0.8-3.3-0.2-3.1-1.4
		c0.6,1.3,2.8,0.8,2.5-1.1c-0.4-2.7-4.2-2.6-4.5,0.8c-0.3,3,2.1,4.5,4.8,3.9C30.1,57.8,29.2,50,32.7,47.3z"/>
	<path class="st0" d="M30.3,38.1c1,0.1,5-0.3,4.9-1.5c-3.6-5.1-13.5-2.6-13-8c0.2-1.7,2.1-2.4,2.9-1.7c-1.3-0.2-1.6,2.6,0.1,3
		c2.6,0.6,3.9-2.5,2.4-4.3c-2.3-2.8-7-1.3-8.1,2.1c-0.7,2.3-0.2,4.4,1.2,5.8C23.1,36,26.4,35.4,30.3,38.1z"/>
	<path class="st0" d="M65,44.2c-3.4-7.7-16.9-2.8-20.5-7c-3.2-3.8,3.1-9.8,3.4-13.9c0.3-3.2-1.6-6.9-4-9c-0.9-1-2.1-1.8-3.3-1.8
		c-0.1,0-0.2,0-0.3,0c-0.1,0-0.2,0-0.3,0c-1.3,0-2.4,0.8-3.3,1.8c-2.3,2.1-4.2,5.8-4,9c0.3,4.1,6.6,10.1,3.4,13.9
		c-3.6,4.2-17.1-0.6-20.5,7c-1.2,2.7,0.5,5.5,2.6,6c3.7,0.8,5.1-2.8,2.9-4.1c-1-0.6-2.9,0.4-2.5,2.3c-2.5-3.3,1.7-5.3,6.2-5.5
		c4-0.2,8,0.7,10.9-0.7c-5.4,5,0.1,14.4-0.5,17.5c-0.2,1.3-2.3,1.7-2.5,1c0.6,0.2,2.1-1.1,0.8-2.6c-1.6-1.9-4.6,0.2-3.4,3.1
		c1.2,2.7,7.4,2.2,7.7-2.9c0.2-3.2-3-9.3,2.4-15.5c0,0,0,0,0,0c0,0,0,0,0,0c5.4,6.2,2.2,12.3,2.4,15.5c0.3,5.1,6.5,5.6,7.7,2.9
		c1.2-2.8-1.8-5-3.4-3.1c-1.3,1.5,0.2,2.8,0.8,2.6c-0.2,0.7-2.3,0.3-2.5-1c-0.6-3.1,4.9-12.5-0.5-17.5c2.9,1.3,6.9,0.5,10.9,0.7
		c4.6,0.2,8.7,2.1,6.2,5.5c0.4-1.9-1.5-2.9-2.5-2.3c-2.2,1.3-0.8,4.9,2.9,4.1C64.5,49.7,66.2,46.9,65,44.2z"/>
	<path class="st0" d="M56.1,54.1c-0.3,1.8,1.9,2.3,2.5,1.1c0.2,1.2-1.5,2.1-3.1,1.4c-3.1-1.4,1.1-9-5-12.7c-1-0.1-2.4-0.1-3.4-0.1
		c0.9,1.5,0.8,2.9,1,3.5c3.5,2.7,2.6,10.5,7.6,11.6c2.7,0.6,5.1-1,4.8-3.9C60.2,51.5,56.4,51.4,56.1,54.1z"/>
	<path class="st0" d="M55.6,30c1.8-0.4,1.4-3.2,0.1-3c0.8-0.8,2.8,0,2.9,1.7c0.5,5.4-9.4,2.8-13,8c-0.1,1.2,3.9,1.7,4.9,1.5
		c4-2.7,7.2-2.1,9.6-4.5c1.4-1.4,1.9-3.5,1.2-5.8c-1.1-3.4-5.8-4.9-8.1-2.1C51.8,27.5,53,30.6,55.6,30z"/>
</g>
</svg>
