<?xml version="1.0" encoding="utf-8"?>
<!-- Generator: Adobe Illustrator 23.0.1, SVG Export Plug-In . SVG Version: 6.00 Build 0)  -->
<svg version="1.1" id="Layer_1" xmlns="http://www.w3.org/2000/svg" xmlns:xlink="http://www.w3.org/1999/xlink" x="0px" y="0px"
	 viewBox="0 0 80 80" style="enable-background:new 0 0 80 80;" xml:space="preserve">
<style type="text/css">
	.st0{fill:#3D1311;}
</style>
<g>
	<path class="st0" d="M40,0.5C18.2,0.5,0.5,18.2,0.5,40c0,21.8,17.7,39.5,39.5,39.5c21.8,0,39.5-17.7,39.5-39.5
		C79.5,18.2,61.8,0.5,40,0.5z M40,73.1C21.7,73.1,6.9,58.3,6.9,40S21.7,6.9,40,6.9c18.3,0,33.1,14.8,33.1,33.1S58.3,73.1,40,73.1z"
		/>
	<path class="st0" d="M33.2,27.3c-0.1,0.4-0.1,0.9,0.3,1.2c0.1,0.1,0.2,0.2,0.2,0.3c0.1,0.2,0.3,0.3,0.6,0.4c1,0.1,1.8,0.9,2,1.8
		c0.2,0.9,0,1.7-0.8,2.2c-0.8,0.5-1.6,0.5-2.3,0c-0.9-0.5-1.2-1.4-1.1-2.3c0.1-0.4,0-0.8-0.3-1.1c-0.3-0.4-0.6-0.5-1-0.6
		c-1-0.1-1.9,0.2-2.8,0.7c-1.8,0.9-3,2.4-3.9,4.1c-0.1,0.2-0.2,0.4-0.2,0.6c0,0.9-0.1,1.9,0,2.8c0.2,1.7,0.8,3.2,2,4.5
		c0.6,0.6,1.2,0.9,2.1,0.5c0.3-0.1,0.5-0.2,0.6-0.5c0.5-1.1,1.5-1.6,2.6-1.6c1.6,0.1,2.5,1.8,1.7,3.2c-0.6,1.1-2,1.5-3.2,1
		c-0.4-0.2-0.7-0.2-1.1,0c-0.1,0-0.2,0-0.2,0.1c-0.2,0.2-0.5,0.3-0.7,0.5c-0.2,0.3-0.3,0.6-0.4,1c-0.2,0.9-0.1,1.8,0.1,2.7
		c0.4,1.7,1.4,3.2,2.6,4.5c0.1,0.1,0.2,0.1,0.2,0.2c1.4,0.7,2.9,1.1,4.5,1.1c1.2,0,2.4-0.3,3.4-0.9c0.5-0.3,0.9-0.7,0.8-1.4
		c0-0.2,0-0.3,0-0.5c0-0.2-0.1-0.3-0.2-0.5c-0.2-0.3-0.5-0.5-0.7-0.8c-0.8-1.3-0.3-2.8,1.1-3.3c1.3-0.5,2.7,0.1,3.1,1.3
		c0.3,0.9,0,1.8-0.6,2.4c-0.4,0.4-0.5,0.8-0.5,1.4c0,0.6,0.2,0.9,0.7,1.2c0.8,0.5,1.6,0.8,2.5,0.9c1.9,0.3,3.7-0.1,5.4-0.9
		c0.3-0.1,0.5-0.3,0.7-0.5c0.4-0.5,0.9-1.1,1.3-1.6c1-1.5,1.5-3.1,1.4-4.9c-0.1-1-0.3-1.8-1.6-2.1c-0.2,0-0.3,0-0.5,0.1
		c-1.5,0.8-3.3,0.1-3.7-1.5c-0.3-0.9,0-1.8,0.8-2.4c0.7-0.5,1.6-0.6,2.4-0.1c0.5,0.3,1,0.7,1.2,1.3c0.2,0.5,0.5,0.6,1,0.8
		c0.6,0.2,1.2,0.1,1.6-0.4c0.4-0.4,0.7-0.8,1-1.2c0.9-1.4,1.2-3,1.3-4.9c0-0.2-0.1-0.7-0.1-1.1c0-0.4-0.1-0.8-0.4-1.1
		c-0.5-0.7-0.9-1.3-1.4-1.9c-1.1-1.2-2.4-2.1-4.1-2.5c-1-0.2-1.8-0.1-2.3,0.9c-0.1,0.1-0.1,0.3-0.1,0.4c0.1,0.9,0,1.7-0.7,2.4
		c-0.7,0.7-1.9,0.8-2.6,0.4c-0.8-0.5-1.2-1.6-0.9-2.5c0.3-1,1.1-1.5,2-1.7c0.1,0,0.3,0,0.4-0.1c0.7-0.6,0.9-1.5,0.5-2.4
		c-0.3-0.7-0.8-1.2-1.3-1.8c-1.2-1.2-2.7-1.9-4.4-2.3c-0.4-0.1-0.8-0.2-1.2-0.2c-1.9,0.3-3.7,1.1-5.1,2.5
		C34,25.6,33.4,26.3,33.2,27.3z M40,36.1c1.8,0,3.2,1.4,3.3,3.2c0,1.8-1.4,3.2-3.2,3.2c-1.8,0-3.2-1.4-3.2-3.2
		C36.8,37.6,38.2,36.2,40,36.1z"/>
	<path class="st0" d="M19.8,31c0.7,0.2,1.4,0.5,2.1,0.7c0.7,0.2,0.7,0.2,1.1-0.4c1.4-1.9,3.1-3.4,5.5-4.1c0.9-0.3,1.8-0.5,2.7,0
		c0,0,0,0,0.1,0c0-0.1,0-0.2,0-0.2c0-0.3,0-0.7,0.1-0.9c0.6-1.4,1.6-2.6,2.8-3.5c1.4-1,2.9-1.7,4.6-2.1c0.2,0,0.3-0.1,0.3-0.3
		c0-1.2,0-2.3,0-3.5c0-0.2-0.1-0.3-0.2-0.4c-2-1.2-4.2-1.7-6.5-1.6c-2.3,0-4.4,0.6-6.5,1.5c-0.6,0.3-1.2,0.5-1.7,1
		c-2,1.9-3.5,4.2-4.4,6.8c-0.7,2.1-0.9,4.3-0.4,6.5C19.3,30.7,19.4,30.9,19.8,31z"/>
	<path class="st0" d="M41.3,20.5c0.6,0.2,1.2,0.3,1.8,0.5c2.1,0.8,3.8,2,5,3.9c0.5,0.7,0.9,1.4,0.7,2.3c0,0,0,0,0,0.1
		c0.3-0.1,0.5-0.2,0.7-0.3c0.1,0,0.2-0.1,0.3-0.1c1.4,0.2,2.7,0.6,3.9,1.4c1.4,0.9,2.4,2,3.3,3.3c0.1,0.2,0.2,0.2,0.4,0.1
		c1-0.4,1.9-0.7,2.9-1.1c0.2-0.1,0.3-0.2,0.3-0.4c0.4-2,0.3-4-0.3-6c-0.8-2.7-2.2-4.9-4.1-6.9c-0.4-0.4-0.8-0.7-1.3-1
		c-2-1-4.1-1.6-6.3-1.8c-2.6-0.2-5.1,0.2-7.4,1.6c-0.2,0.1-0.3,0.2-0.3,0.4c0,1.2,0,2.4,0,3.5C41.1,20.4,41.1,20.4,41.3,20.5z"/>
	<path class="st0" d="M65.5,40.1c-0.5-2.8-1.8-5.2-3.9-7.1c-0.2-0.1-0.3-0.3-0.6-0.2c-0.9,0.3-1.7,0.6-2.6,0.9
		c-0.2,0.1-0.2,0.2-0.2,0.3c0,1,0.1,2,0.1,3c-0.1,1.8-0.6,3.5-1.7,5c-0.6,0.9-1.3,1.8-2.5,2c0.1,0.1,0.2,0.2,0.3,0.3
		c0.1,0.1,0.2,0.2,0.2,0.3c0.1,0.1,0.1,0.2,0.2,0.3c0.3,1.4,0.3,2.9-0.1,4.3c-0.4,1.6-1.2,3-2.3,4.2c-0.1,0.2-0.1,0.3,0,0.4
		c0.4,0.5,0.8,1.1,1.3,1.6c0.1,0.2,0.2,0.2,0.4,0.2c1.9-0.2,3.6-0.8,5.2-1.8c2.3-1.4,4.1-3.4,5.4-5.7c0.3-0.6,0.7-1.1,0.8-1.8
		C66,44.3,65.9,42.2,65.5,40.1z"/>
	<path class="st0" d="M24.9,46.6c0-0.9,0-1.8,0.8-2.5c0,0,0,0,0-0.1c-0.3-0.1-0.5-0.1-0.8-0.2c-0.1,0-0.2-0.1-0.3-0.2
		c-1.1-1-1.9-2.2-2.4-3.6c-0.7-1.9-0.8-3.8-0.6-5.7c0-0.3,0-0.3-0.3-0.4c-0.9-0.3-1.8-0.6-2.6-0.9c-0.2-0.1-0.3,0-0.5,0.1
		c-1.8,1.7-2.9,3.7-3.5,6c-0.5,2-0.7,4.1-0.5,6.1c0.1,0.7,0.1,1.5,0.5,2.1c1.2,2.2,2.7,4.2,4.7,5.8c1.7,1.3,3.6,2.2,5.8,2.6
		c0.7,0.1,1.2,0,1.6-0.7c0.3-0.5,0.6-0.8,0.9-1.3c-0.2-0.2-0.3-0.4-0.5-0.6C25.8,51.2,24.8,49.1,24.9,46.6z"/>
	<path class="st0" d="M50.9,55.4c-0.1-0.1-0.2-0.2-0.4-0.1c-0.6,0.2-1.2,0.5-1.8,0.7c-2.1,0.6-4.2,0.8-6.2,0.1c-1-0.3-2-0.6-2.4-1.7
		c0,0,0,0-0.1,0c-0.2,0.2-0.3,0.5-0.5,0.7c-0.1,0.1-0.2,0.2-0.3,0.2c-0.4,0.2-0.9,0.5-1.3,0.6c-2,0.7-4,0.7-6,0.2
		c-0.9-0.2-1.8-0.6-2.7-0.9c-0.4,0.5-0.9,1.1-1.3,1.7c-0.1,0.1,0,0.2,0,0.4c0.8,1.7,1.8,3.1,3.2,4.3c2.2,1.9,4.9,3,7.7,3.5
		c0.4,0.1,0.8,0.2,1.2,0.1c2.4-0.3,4.6-1.1,6.7-2.3c2.3-1.4,4-3.2,5.1-5.6c0.1-0.3,0.1-0.4-0.1-0.6C51.6,56.3,51.2,55.9,50.9,55.4z"
		/>
</g>
</svg>
