<?xml version="1.0" encoding="utf-8"?>
<!-- Generator: Adobe Illustrator 23.0.1, SVG Export Plug-In . SVG Version: 6.00 Build 0)  -->
<svg version="1.1" id="Layer_1" xmlns="http://www.w3.org/2000/svg" xmlns:xlink="http://www.w3.org/1999/xlink" x="0px" y="0px"
	 viewBox="0 0 80 80" style="enable-background:new 0 0 80 80;" xml:space="preserve">
<style type="text/css">
	.st0{fill:#3D1311;}
</style>
<path class="st0" d="M40,0.5C18.18,0.5,0.5,18.18,0.5,40c0,21.23,16.75,38.55,37.76,39.46c0.58,0.03,1.16,0.04,1.74,0.04
	c17.71,0,32.69-11.65,37.71-27.71c1.16-3.72,1.79-7.69,1.79-11.79C79.5,18.18,61.82,0.5,40,0.5z M6.75,40
	C6.75,21.64,21.64,6.75,40,6.75c18.25,0,33.06,14.7,33.24,32.9c-4.56-9.1-9.7-12.9-10.68-14.47c-1.2-1.94-1.38-5.5-6.43-7.91
	c-3.12-1.49-4.39-3.82-7.23-4.48c-2.36-0.55-8.23,2.87-8.38,6.02c-0.64,0.27-3.83,1-4.86,1.07c-1.02,0.08-2.96,0.28-3.78,0.68
	c-0.46,0.23-1.21,0.81-1.52,0.98c-1.22,0.64-6.39,1.85-6.73,1.86c-0.34,0.01-1.02-0.17-1.84-0.18c-0.82,0-2.79,0.33-3.65,0.8
	c-0.77,0.43-1.33,1.42-1.4,1.85c-0.11,0.74,0.67,2.62,0.67,2.62c-0.02,0.03-0.03,0.07-0.05,0.11l0.2-0.01
	c-0.03,0.07-0.07,0.14-0.11,0.21c-0.77,1.09-1.66,2.54,0.31,3.71c0.28,0.17,0.54,0.34,0.8,0.51c-0.13,1.07-0.3,3.3,0.28,4.39
	c0.16,0.23,0.88-1.05,1.55-2.35c-0.08,1.31-0.04,2.73,0.38,3.64c0.11,0.3,1.02-1.22,1.93-2.85c4.77,3.6,3.63,4.62,2.94,6.42
	c-0.4,1.03-1.14,1.97-1.83,2.7c-0.47-0.22-0.96-0.48-1.19-0.74c-0.3-0.33-0.36-0.05-0.28,0.38c-0.3-0.16-0.58-0.34-0.73-0.52
	c-0.52-0.58-0.31,0.71,0.06,1.42c0.14,0.26,0.37,0.58,0.61,0.88c-0.05,0.04-0.08,0.07-0.09,0.09c-0.07,0.13-0.88,1.37-0.92,1.89
	c-0.04,0.53-0.28,1.29,1.64,3.99c1.92,2.71,3.83,0.85,7.93-1.31c0.34-0.18,0.74-0.29,1.16-0.34c-3.88,8.47-0.82,14.78-0.16,16.01
	c1.39,2.61,3.48,5.94,3.48,5.94s0.02,0.09,0.06,0.25C19.21,70.69,6.75,56.8,6.75,40z"/>
</svg>
