<?xml version="1.0" encoding="utf-8"?>
<!-- Generator: Adobe Illustrator 23.0.1, SVG Export Plug-In . SVG Version: 6.00 Build 0)  -->
<svg version="1.1" id="Layer_1" xmlns="http://www.w3.org/2000/svg" xmlns:xlink="http://www.w3.org/1999/xlink" x="0px" y="0px"
	 viewBox="0 0 337.29 223" style="enable-background:new 0 0 337.29 223;" xml:space="preserve">
<style type="text/css">
	.st0{fill:#FFFFFF;}
</style>
<g>
	<path class="st0" d="M144.73,108.8c0.89-1.27,2.38-2.2,4.48-2.79l-7.5-19.36H125.6l-6.16,18.44c0,1.12,0.75,2.08,2.25,2.88
		c0.74,0.38,1.48,0.66,2.22,0.83h-17.1c2.47-0.32,4.44-1.31,5.9-2.96c0.74-0.84,1.23-1.63,1.48-2.39l20.01-53.03
		c13.57,33.03,21.03,50.85,22.38,53.45c0.84,1.63,2.19,2.95,4.05,3.93c0.93,0.49,1.78,0.83,2.54,1L144.73,108.8L144.73,108.8z
		 M140.82,83.14l-7.04-19.73l-7.27,19.67L140.82,83.14z"/>
	<path class="st0" d="M162.39,94.29c0,3.75,1.37,6.6,4.11,8.55c2.07,1.48,4.45,2.22,7.13,2.22c2.41,0,4.83-0.81,7.24-2.42
		c2.79-1.86,4.19-4.12,4.19-6.79c0-2.62-1.12-5.35-3.36-8.18c-1.44-1.81-4.17-4.5-8.18-8.07c-3.92-3.48-6.59-6.17-8.01-8.07
		c-2.15-2.81-3.22-5.67-3.22-8.58c0-3.38,1.36-6.27,4.08-8.67c2.95-2.58,6.76-3.88,11.43-3.88c4.07,0,7.14,0.37,9.21,1.11
		c1.04,0.36,1.67,0.73,1.88,1.11l-1.8,10.09c0-2-0.69-3.96-2.08-5.9c-1.77-2.41-4.11-3.62-7.01-3.62c-3.19,0-5.64,0.65-7.33,1.94
		c-1.62,1.27-2.42,3.06-2.42,5.36c0,3.8,3.33,8.44,9.98,13.91c4.07,3.33,6.78,5.78,8.12,7.36c2.89,3.34,4.33,6.73,4.33,10.15
		c0,5.42-2.46,9.75-7.38,13c-3.93,2.58-8.06,3.88-12.37,3.88c-2.76,0-5.15-0.69-7.18-2.08c-1.03-0.7-1.77-1.41-2.22-2.11
		C161.19,101.83,161.48,98.39,162.39,94.29z"/>
	<path class="st0" d="M238.36,50.41l-2.2,10.66c-0.08-1.06-0.39-2.12-0.94-3.16c-1.08-2.13-2.8-3.19-5.16-3.19h-11.03v0.68
		c-0.02,11.04-0.04,21.12-0.06,30.22v17.79c0.11,1.58,0.98,2.95,2.59,4.11c0.8,0.59,1.59,1.02,2.37,1.28H207.2
		c0.78-0.27,1.58-0.69,2.4-1.28c1.6-1.16,2.46-2.53,2.59-4.11V85.62c-0.02-9.1-0.04-19.18-0.06-30.22l-0.03-0.68h-11
		c-2.36,0-4.09,1.06-5.19,3.19c-0.53,1.04-0.84,2.1-0.91,3.16l-2.2-10.66l2.2,1.03h41.17L238.36,50.41z"/>
	<path class="st0" d="M271.98,51.44l2.2-1.03l-2.2,10.66c-0.08-1.06-0.39-2.12-0.94-3.16c-1.08-2.13-2.8-3.19-5.16-3.19h-11.09
		v21.84h12.2c2.36-0.06,4.29-0.7,5.82-1.94l-1.43,11.43c-0.04-1.04-0.37-2.08-1-3.11c-1.25-2.05-3.34-3.08-6.27-3.08h-9.32v21.67
		c0.63,0.82,1.52,1.63,2.68,2.45c2.34,1.63,4.86,2.45,7.55,2.45c2.72,0,5.25-1.28,7.61-3.85c1.18-1.29,2.08-2.58,2.71-3.85
		l-1.17,10.06h-31.13c0.82-0.29,1.64-0.73,2.48-1.34c1.67-1.25,2.51-2.73,2.51-4.42c0-2.7-0.03-18.58-0.09-47.64
		c-0.86-1.75-2.83-3.07-5.93-3.96L271.98,51.44L271.98,51.44z"/>
	<path class="st0" d="M311.84,90.04c3.29,4.85,6.18,8.49,8.67,10.92c4.45,4.33,8.51,6.12,12.2,5.36c-0.17,0.4-0.67,0.81-1.51,1.23
		c-1.63,0.84-4.09,1.25-7.36,1.25c-3.27,0-7.24-2.8-11.92-8.41c-2.34-2.81-4.34-5.62-6.02-8.44c-0.74-1.35-1.99-2.69-3.73-4.02
		c-3.5-2.7-7.75-4.05-12.74-4.05v19.56c0.11,1.58,0.97,2.95,2.57,4.11c0.8,0.57,1.59,0.99,2.37,1.25h-16.62
		c0.78-0.27,1.57-0.68,2.37-1.25c1.6-1.16,2.45-2.53,2.57-4.11V56.15c-0.11-1.56-0.97-2.92-2.57-4.08c-0.8-0.59-1.59-1.02-2.37-1.28
		h11.69c4.09-0.67,8.17-0.58,12.26,0.26c8.19,1.67,12.29,6.27,12.29,13.8c0.13,1.37-0.14,3.11-0.83,5.22
		c-1.33,4.2-4.01,8.1-8.04,11.69C307.07,83.55,309.32,86.31,311.84,90.04z M299.19,79.8c1.33-0.06,2.66-0.57,3.99-1.54
		c2.64-1.94,3.96-5.22,3.96-9.83c0-5.04-1.36-8.99-4.08-11.86c-2.22-2.34-4.71-3.51-7.47-3.51s-4.3,0.08-4.65,0.23
		c-0.86,0.36-1.28,1.58-1.28,3.65c0,3.02-0.08,10.64-0.23,22.86H299.19z"/>
</g>
<g>
	<path class="st0" d="M57.74,106.82v-0.05H57.7l-0.31-0.36l-32.36-68.7l-4.3,57.08v3.3c0.21,2.81,1.56,5.23,4.04,7.25
		c1.26,1.05,2.5,1.81,3.73,2.28H2.4c1.23-0.47,2.46-1.23,3.68-2.28c2.52-2.03,3.86-4.45,4.04-7.25l10.56-93.2L57.7,89.36L95.84,6.1
		l13.7,93.2c0.18,2.77,1.53,5.19,4.04,7.25c1.26,1.01,2.49,1.76,3.68,2.23H91.2c1.2-0.47,2.43-1.22,3.68-2.23
		c2.52-2.06,3.86-4.48,4.04-7.25v-3.35L90.3,40.46l-32.49,66.25L57.74,106.82z"/>
</g>
<g>
	<path class="st0" d="M138.45,118.49c3.43,0,6.62,1.4,9.56,4.21c3.23,3.09,4.85,6.85,4.85,11.28c0,4.33-1.66,7.89-4.99,10.68
		c-2.88,2.42-6.02,3.62-9.41,3.62c-3.69,0-6.98-1.05-9.89-3.16c-3.66-2.65-5.48-6.4-5.48-11.25c0-6.78,2.57-11.38,7.7-13.79
		C133.33,118.86,135.89,118.33,138.45,118.49z M126.79,133.37c0,4.01,0.99,7.17,2.97,9.5c1.41,1.65,3.23,2.8,5.46,3.45V120.5
		c-2.23,0.64-4.05,1.78-5.46,3.41C127.78,126.21,126.79,129.36,126.79,133.37z M137.08,120.12c-0.33,0.04-0.65,0.09-0.98,0.16v26.28
		c0.34,0.07,0.66,0.13,0.98,0.17V120.12z M138.55,146.8c0.37-0.01,0.76-0.04,1.18-0.09V120.3c-0.4-0.09-0.79-0.16-1.18-0.2V146.8z
		 M140.61,146.55c2.24-0.48,4.07-1.5,5.5-3.07c2.02-2.22,3.03-5.39,3.03-9.51c0-4.13-1.01-7.41-3.03-9.82
		c-1.43-1.71-3.26-2.91-5.5-3.59V146.55z"/>
	<path class="st0" d="M164.58,131.81c1.2-0.03,2.19-0.36,2.97-0.99l-0.73,5.83c-0.02-0.53-0.19-1.06-0.51-1.59
		c-0.64-1.05-1.71-1.57-3.2-1.57h-4.76v11.06l-0.01,0.48v0.48c0.06,0.81,0.5,1.5,1.32,2.09c0.41,0.3,0.81,0.52,1.21,0.66h-8.53
		c0.4-0.14,0.8-0.35,1.21-0.66c0.81-0.59,1.26-1.29,1.32-2.09v-9.08h0.01c-0.01-4.65-0.02-9.79-0.03-15.42
		c-0.44-0.89-1.45-1.57-3.03-2.02h15.29l1.12-0.52l-1.12,5.44c-0.04-0.54-0.2-1.08-0.48-1.61c-0.55-1.09-1.43-1.63-2.63-1.63h-5.66
		v11.14L164.58,131.81L164.58,131.81z"/>
	<path class="st0" d="M199.03,118.47l-1.12,5.44c-0.04-0.54-0.2-1.08-0.48-1.61c-0.55-1.09-1.43-1.63-2.63-1.63h-5.63v0.35
		c-0.01,5.63-0.02,10.78-0.03,15.42v9.08c0.06,0.81,0.5,1.5,1.32,2.09c0.41,0.3,0.81,0.52,1.21,0.66h-8.54
		c0.4-0.14,0.8-0.35,1.22-0.66c0.82-0.59,1.26-1.29,1.32-2.09v-9.08c-0.01-4.65-0.02-9.79-0.03-15.42l-0.01-0.35h-5.62
		c-1.2,0-2.09,0.54-2.65,1.63c-0.27,0.53-0.43,1.07-0.46,1.61l-1.12-5.44l1.12,0.52h21.01L199.03,118.47z"/>
	<path class="st0" d="M227.21,145.52c0.06,0.81,0.5,1.5,1.32,2.09c0.41,0.3,0.81,0.52,1.21,0.66h-8.54c0.4-0.14,0.81-0.35,1.22-0.66
		c0.81-0.59,1.25-1.29,1.31-2.09v-12.56h-16.38v12.56c0.06,0.81,0.5,1.5,1.31,2.09c0.42,0.3,0.82,0.52,1.22,0.66h-8.54
		c0.4-0.14,0.8-0.35,1.21-0.66c0.82-0.59,1.27-1.29,1.32-2.09v-24.3c-0.06-0.8-0.5-1.5-1.32-2.09c-0.41-0.3-0.81-0.52-1.21-0.65
		h8.54c-0.4,0.14-0.81,0.35-1.22,0.65c-0.81,0.59-1.25,1.29-1.31,2.09v9.67h16.38v-9.67c-0.06-0.8-0.5-1.5-1.31-2.09
		c-0.42-0.3-0.83-0.52-1.22-0.65h8.54c-0.4,0.14-0.8,0.35-1.21,0.65c-0.82,0.59-1.27,1.29-1.32,2.09V145.52z"/>
	<path class="st0" d="M246.78,119l1.12-0.52l-1.12,5.44c-0.04-0.54-0.2-1.08-0.48-1.61c-0.55-1.09-1.43-1.63-2.63-1.63h-5.66v11.14
		h6.23c1.2-0.03,2.19-0.36,2.97-0.99l-0.73,5.83c-0.02-0.53-0.19-1.06-0.51-1.59c-0.64-1.05-1.71-1.57-3.2-1.57h-4.76v11.06
		c0.32,0.42,0.78,0.83,1.37,1.25c1.19,0.83,2.48,1.25,3.86,1.25c1.39,0,2.68-0.65,3.88-1.96c0.6-0.66,1.06-1.31,1.38-1.96l-0.6,5.14
		h-15.89c0.42-0.15,0.84-0.37,1.27-0.68c0.85-0.64,1.28-1.39,1.28-2.26c0-1.38-0.01-9.48-0.04-24.31c-0.44-0.89-1.45-1.57-3.03-2.02
		h15.29V119z"/>
</g>
<g>
	<path class="st0" d="M108.64,205.96c0.2,2.81,1.74,5.24,4.61,7.3c1.42,1.05,2.82,1.81,4.21,2.28H87.69
		c1.39-0.47,2.81-1.23,4.26-2.28c2.84-2.06,4.36-4.5,4.56-7.3V162.2H53.32v43.76c0.2,2.81,1.72,5.24,4.56,7.3
		c1.45,1.05,2.87,1.81,4.26,2.28H32.38c1.39-0.47,2.79-1.23,4.21-2.28c2.87-2.06,4.41-4.5,4.61-7.3v-84.68
		c-0.2-2.81-1.74-5.24-4.61-7.3c-1.42-1.05-2.82-1.81-4.21-2.28h29.76c-1.39,0.47-2.81,1.23-4.26,2.28c-2.84,2.06-4.36,4.5-4.56,7.3
		V155h43.19v-33.72c-0.2-2.81-1.72-5.24-4.56-7.3c-1.45-1.05-2.87-1.81-4.26-2.28h29.77c-1.39,0.47-2.79,1.23-4.21,2.28
		c-2.87,2.06-4.41,4.5-4.61,7.3V205.96z"/>
</g>
<g>
	<path class="st0" d="M149.56,157.19c6.73,0,12.97,2.75,18.73,8.24c6.33,6.06,9.49,13.43,9.49,22.09c0,8.48-3.26,15.45-9.78,20.92
		c-5.64,4.73-11.79,7.1-18.44,7.1c-7.22,0-13.68-2.06-19.39-6.19c-7.17-5.19-10.75-12.53-10.75-22.04
		c0-13.29,5.03-22.29,15.08-27.03C139.52,157.92,144.54,156.88,149.56,157.19z M126.72,186.35c0,7.85,1.94,14.05,5.82,18.62
		c2.75,3.23,6.32,5.48,10.69,6.76v-50.6c-4.37,1.25-7.94,3.48-10.69,6.67C128.66,172.32,126.72,178.5,126.72,186.35z M146.88,160.38
		c-0.65,0.08-1.28,0.18-1.91,0.31v51.49c0.67,0.13,1.3,0.25,1.91,0.34V160.38z M149.76,212.67c0.72-0.02,1.49-0.08,2.31-0.17v-51.74
		c-0.78-0.17-1.55-0.3-2.31-0.4V212.67z M153.81,212.18c4.39-0.93,7.98-2.94,10.78-6.02c3.95-4.35,5.93-10.57,5.93-18.64
		c0-8.1-1.98-14.51-5.93-19.24c-2.79-3.34-6.39-5.69-10.78-7.04V212.18z"/>
	<path class="st0" d="M235.68,157.16c-0.74,0.27-1.51,0.67-2.31,1.23c-1.58,1.14-2.43,2.48-2.57,4.02v25.86
		c0,8.44-2.51,15.22-7.53,20.35c-4.5,4.62-9.82,6.93-15.94,6.93c-6.63,0-12.26-2-16.88-6.01c-5.64-4.92-8.47-12.08-8.47-21.47
		v-25.89c-0.29-1.73-1.1-3.09-2.45-4.08c-0.68-0.49-1.34-0.81-1.97-0.94h16.56c-0.78,0.27-1.57,0.68-2.37,1.25
		c-1.58,1.16-2.43,2.52-2.57,4.08l-0.06,17.59l-0.03,7.04c0,14.12,4.02,22.36,12.06,24.72l1.65,0.43c0.65,0.13,1.27,0.24,1.88,0.31
		l2.79,0.17c0.89-0.04,1.64-0.1,2.25-0.2l1.68-0.29c3.71-0.78,6.54-2.73,8.5-5.84c2.49-3.99,3.73-10.04,3.73-18.16v-24.72
		c0-2.22-0.75-3.96-2.25-5.22c-0.76-0.61-1.52-1-2.28-1.17h16.58V157.16z"/>
	<path class="st0" d="M234.43,201.03c0,3.75,1.37,6.6,4.11,8.55c2.07,1.48,4.45,2.22,7.13,2.22c2.41,0,4.83-0.81,7.24-2.42
		c2.79-1.86,4.19-4.12,4.19-6.79c0-2.62-1.12-5.35-3.36-8.18c-1.45-1.81-4.17-4.5-8.18-8.07c-3.92-3.48-6.59-6.17-8.01-8.07
		c-2.15-2.81-3.22-5.67-3.22-8.58c0-3.38,1.36-6.27,4.08-8.67c2.95-2.58,6.76-3.88,11.43-3.88c4.07,0,7.14,0.37,9.21,1.11
		c1.04,0.36,1.67,0.73,1.88,1.11l-1.79,10.09c0-2-0.7-3.96-2.08-5.9c-1.77-2.41-4.11-3.62-7.01-3.62c-3.19,0-5.63,0.65-7.33,1.94
		c-1.62,1.27-2.42,3.06-2.42,5.36c0,3.8,3.33,8.44,9.98,13.91c4.07,3.33,6.78,5.78,8.12,7.36c2.89,3.34,4.33,6.73,4.33,10.15
		c0,5.42-2.46,9.75-7.38,13c-3.93,2.58-8.06,3.88-12.37,3.88c-2.76,0-5.15-0.69-7.18-2.08c-1.03-0.7-1.77-1.41-2.22-2.11
		C233.22,208.58,233.51,205.14,234.43,201.03z"/>
	<path class="st0" d="M294.24,158.19l2.2-1.03l-2.2,10.66c-0.08-1.06-0.39-2.12-0.94-3.16c-1.08-2.13-2.8-3.19-5.16-3.19h-11.09
		v21.84h12.2c2.36-0.06,4.29-0.7,5.82-1.94l-1.43,11.43c-0.04-1.04-0.37-2.08-1-3.11c-1.25-2.05-3.34-3.08-6.27-3.08h-9.32v21.67
		c0.63,0.82,1.52,1.63,2.68,2.45c2.34,1.63,4.86,2.45,7.55,2.45c2.72,0,5.25-1.28,7.61-3.85c1.18-1.29,2.08-2.58,2.71-3.85
		l-1.17,10.06H265.3c0.82-0.29,1.64-0.73,2.48-1.34c1.67-1.25,2.51-2.73,2.51-4.42c0-2.7-0.03-18.58-0.09-47.64
		c-0.86-1.75-2.83-3.07-5.93-3.96L294.24,158.19L294.24,158.19z"/>
	<path class="st0" d="M302.25,201.03c0,3.75,1.37,6.6,4.11,8.55c2.07,1.48,4.45,2.22,7.13,2.22c2.41,0,4.83-0.81,7.24-2.42
		c2.79-1.86,4.19-4.12,4.19-6.79c0-2.62-1.12-5.35-3.36-8.18c-1.45-1.81-4.17-4.5-8.18-8.07c-3.92-3.48-6.58-6.17-8.01-8.07
		c-2.15-2.81-3.22-5.67-3.22-8.58c0-3.38,1.36-6.27,4.08-8.67c2.95-2.58,6.76-3.88,11.43-3.88c4.07,0,7.14,0.37,9.21,1.11
		c1.04,0.36,1.67,0.73,1.88,1.11l-1.8,10.09c0-2-0.69-3.96-2.08-5.9c-1.77-2.41-4.11-3.62-7.01-3.62c-3.19,0-5.63,0.65-7.33,1.94
		c-1.62,1.27-2.42,3.06-2.42,5.36c0,3.8,3.33,8.44,9.98,13.91c4.07,3.33,6.78,5.78,8.12,7.36c2.89,3.34,4.33,6.73,4.33,10.15
		c0,5.42-2.46,9.75-7.38,13c-3.93,2.58-8.06,3.88-12.37,3.88c-2.76,0-5.15-0.69-7.18-2.08c-1.03-0.7-1.77-1.41-2.22-2.11
		C301.04,208.58,301.34,205.14,302.25,201.03z"/>
</g>
</svg>
