<?xml version="1.0" encoding="utf-8"?>
<!-- Generator: Adobe Illustrator 23.0.1, SVG Export Plug-In . SVG Version: 6.00 Build 0)  -->
<svg version="1.1" id="Layer_1" xmlns="http://www.w3.org/2000/svg" xmlns:xlink="http://www.w3.org/1999/xlink" x="0px" y="0px"
	 viewBox="0 0 300 80" style="enable-background:new 0 0 300 80;" xml:space="preserve">
<style type="text/css">
	.st0{fill-rule:evenodd;clip-rule:evenodd;fill:#486370;}
</style>
<path class="st0" d="M287.48,50c-2.33-2.32-6.16-2.82-10.57-1.56c2.64-1.57,5-2.17,6.98-1.76c-0.36-2.65,0.73-5.43,2.46-8.63
	c-2.68,3.6-5.94,4.81-8.25,4.15c0.83,0.96,1.12,3.13-1.94,6.36c0.18-3.72-1.83-5.61-4.08-6.08c-5.98-1.25-7.82,7.05-3.03,7.04
	c-3.33-2.34,1.22-5.91,2.82-2.35c1.06,2.36-1.17,4.62-3.68,6.06c-3.8,2.18-9.09,2.96-11.16,3.02c-2.44,0.07-4.98-0.2-7.57-0.75
	c3.57-1.62,5.52-4.57,6.52-8.84c0.65-2.75,0.96-4.83,3.68-5.4c-2.46-0.32-4.41,0.2-5.23,2.58c-1.49-3.47-5.43-4.13-7.84-2.3
	c-2.41,1.83-2.13,4.53-0.42,5.69c-1.9-5.39,7.7-5.48,5.42,1.43c-0.99,3-3.15,4.94-6.23,5.76c-7.87-2.42-15.81-6.91-22.07-11.49
	c8.3,5.15,12.84,3.5,14.8,4.43c0.06-2.29,3.03-3.53,4.32-5.19c-2.75,1.24-4.58,1.46-6.32,0.85c-1.97,2.35-8.77,0.57-11.88-0.96
	c-0.76-0.37-1.49-0.76-2.19-1.16c2.5,0.97,5.64,1.51,9.35,1.07c7.84-0.92,11.27-8.63,7.95-12.32c-3.32-3.7-9.09-1.22-8.08,2.86
	c1.44-3.25,6.43-2.42,5.46,1.78c-0.72,3.12-3.5,4.64-6.27,5.15c-1.56,0.28-3.25,0.23-4.91-0.07c2.5-0.42,4.58-1.83,4.81-3.97
	c-6.06,5.84-12.24,0.81-15.97-3.91c3.83,0.74,7.97-1.98,8.08-6.57c-2.53,4.11-7.71,5.26-12.23,2.14c-1.27-1.17-2.62-2.27-3.99-3.29
	c1.14-2.61,1.27-5.55-0.1-8.58c-2.63-5.79-7.74-5.52-8.76-10.26c-2.47,2.01-2.17,2.09-5.42,2.58c-4.68,0.72-7.31,4.59-7.75,8.43
	c-4.04,0.06-7.95,0.91-11.48,2.45c-0.78-0.22-1.57-0.4-2.38-0.53c4.64-1.67,7.95-9.11,3.57-12.9c-1.84-1.59-4.41-1.93-6.2-0.44
	c-1.31,1.09-1.8,3.13-0.87,4.36c1.26,1.68,3.19,0.91,3.19,0.91c-3.79-0.95-1.31-5.15,1.38-3.46c4.06,2.54,1.73,8.62-4.43,10.51
	c-4.13,1.26-8.47,2.57-12.02,5.1c-2.25,1.61-4.17,3.75-5.69,6.25c-1.53-2.5-3.44-4.64-5.69-6.25c-3.55-2.53-7.89-3.84-12.02-5.1
	c-6.16-1.88-8.49-7.97-4.43-10.51c2.69-1.68,5.17,2.51,1.38,3.46c0,0,1.93,0.77,3.19-0.91c0.93-1.24,0.44-3.27-0.87-4.36
	c-1.78-1.49-4.36-1.15-6.2,0.44c-4.38,3.8-1.07,11.24,3.57,12.9c-0.81,0.13-1.61,0.31-2.38,0.53c-3.53-1.55-7.44-2.39-11.48-2.45
	c-0.44-3.84-3.07-7.71-7.75-8.43c-3.25-0.5-2.96-0.58-5.42-2.58c-1.02,4.74-6.13,4.48-8.76,10.26c-1.38,3.03-1.25,5.98-0.1,8.58
	c-1.38,1.02-2.72,2.12-3.99,3.29c-4.52,3.12-9.7,1.97-12.23-2.14c0.11,4.59,4.26,7.31,8.08,6.57c-3.74,4.72-9.91,9.75-15.97,3.91
	c0.23,2.15,2.31,3.55,4.81,3.97c-1.66,0.3-3.35,0.35-4.91,0.07c-2.77-0.5-5.55-2.02-6.27-5.15c-0.97-4.2,4.02-5.03,5.46-1.78
	c1.01-4.08-4.76-6.55-8.08-2.86c-3.32,3.7,0.11,11.4,7.95,12.32c3.7,0.44,6.85-0.1,9.35-1.07c-0.7,0.39-1.43,0.78-2.19,1.16
	c-3.11,1.53-9.91,3.31-11.88,0.96c-1.73,0.61-3.57,0.39-6.32-0.85c1.3,1.66,4.27,2.9,4.32,5.19c1.97-0.93,6.5,0.72,14.8-4.43
	c-6.27,4.57-14.21,9.07-22.07,11.49c-3.09-0.82-5.24-2.76-6.23-5.76c-2.29-6.91,7.32-6.83,5.42-1.43c1.71-1.16,1.99-3.86-0.42-5.69
	c-2.41-1.83-6.35-1.17-7.84,2.3c-0.82-2.38-2.77-2.9-5.23-2.58c2.73,0.57,3.03,2.64,3.68,5.4c1,4.27,2.95,7.22,6.52,8.84
	c-2.59,0.54-5.13,0.81-7.57,0.75c-2.07-0.06-7.35-0.84-11.16-3.02c-2.52-1.44-4.75-3.7-3.68-6.06c1.6-3.56,6.14,0.01,2.82,2.35
	c4.79,0.01,2.96-8.29-3.03-7.04c-2.25,0.47-4.26,2.36-4.08,6.08c-3.06-3.23-2.77-5.4-1.94-6.36c-2.3,0.65-5.56-0.56-8.25-4.15
	c1.73,3.2,2.81,5.98,2.46,8.63c1.98-0.42,4.34,0.18,6.98,1.76c-4.42-1.26-8.24-0.76-10.57,1.56c-3.08,3.06-1.95,8.95,2.16,10.12
	c3.86,1.09,7.16-2.12,5.45-4.68c0.18,2.44-3.33,4.46-5.57,1.24c-2.24-3.22,1.86-7.54,7.93-4.68c5.75,2.71,15.23,10.91,32.89,4.78
	c6.99,0.8,14.26-2.23,19.3-6.97c-9.36,10.23-23.86,19.66-34.81,12.11c-3.4,2.21-9.52,0.58-12.99-3.17c1.3,3.87,7.4,9.83,17.31,10.02
	c13.88,0.26,25.24-9.63,33.37-19.94c-1.18,3.36-4.99,8.86-7.96,10.32c6.41-0.45,6.98-8.12,9.06-11.1c-0.78,1.97-1.43,3.35-1.39,6.58
	c0.63,1.71-0.36,2.74,0.54,4.81c0.43-2.36,1.49-2.43,1.49-4.58c-1.23-1.7-0.72-5.46,0.18-7.94c-0.9,5.38,0.98,12.94,8.22,12.9
	c3.72-0.02,7.66-2.38,8.69-5.98c-3.15,3.65-9.89,6.07-14.1-0.27c-1.78-2.68-1.92-5.5-1.48-7.86c0.14,1.08,0.41,2.17,0.82,3.26
	c2.24,5.94,8.62,6.91,12.06,4.66c4.21-2.77,4.32-9.24-0.76-10.35c-2.75-0.6-5.3,2.59-2.89,4.48c-0.56-1.68,0.91-3.53,2.86-2.48
	c2.43,1.31,2.17,4.58-0.78,5.92c-2.95,1.34-8.38-2.05-6.58-10.11c1.28-5.76,4.85-11.02,9.57-15.01c3.78,5.24,11.75,8.42,18.55,6.71
	c-0.69-2.98,0.86-4.23,3.03-5.7c0,0-0.87,4.63,3.44,8.43c4.32,3.8,10.56,2.09,11.59-1.93c1.03-4.02-3.57-4.92-4.32-3.73
	c2.49-0.18,3.6,2.98,1.82,4.61c-1.78,1.63-7.35,1.8-7.86-5.12c-0.24-3.28,1.61-6.07,4.67-7.72c5.13,3.61,12.68,12.27,7.31,17
	c5.16,1.05,5.07,12.08-1.33,19.18c-7.62,8.46-23.4,8.24-24.34-5.32c-0.54,1.57-0.71,3.13-0.57,4.64c-1-2.51-1.44-5.23-1.11-7.99
	c0.67-5.63,5.37-8.22,9.64-7.9c6.43,0.48,7.2,8.69,3.26,10.55c-3.94,1.86-5.6-2.18-3.39-2.79c-1.11-1.27-1.57-3.19,0.63-5
	c-7.85-0.24-7.79,9.12-2.15,11.22c2.71,1.01,6.37,0.57,9.17-2.68c0.41-0.48,0.75-0.98,1.03-1.5c1.88,2,4.59,1.92,6.14,1.26
	c3.29-1.4,2.93-5.83-0.56-6.37c0,0,2.19,1.34,1.27,3.05c-0.92,1.7-3.84,1.85-4.97-0.81c-0.98-2.32-1.09-3.85-1.93-4.93
	c-1.58-3.17-4.97-5.57-9.36-5.24c-3.64,0.27-6.68,1.85-8.66,4.39c-1.79-4-6.32-4.41-5.44-7.02c-2.85,1.79-3.94,0.16-7.33,1.52
	c2.45-0.05,4.61,1.72,3.85,4.06c4.78-2.87,6.82,2.82,6.91,5.43c-0.57,1.99-0.69,4.25-0.29,6.74c-1.28-0.74-2.75-0.86-4.18,0.1
	c3.38,0.5,4.36,2.3,5.44,4.42c0.17,0.41,0.35,0.83,0.54,1.24c-1.9-1.06-4.58-1.75-7.81-1.08c-5.45,1.12-6.38,5.78-3.91,7.95
	c2.47,2.18,4.83,0.03,4.72-1.4c-1.39,1.61-3.42,0.96-3.74-0.62c-0.22-1.08-0.03-2.68,3.31-3.41c3.19-0.7,5.98,0.39,8.59,1.95
	c-1.77-0.19-3.07,0.38-3.99,1.23c-2.75,2.55-3.98,6.91-10.11,5.47c3.23,2.19,6.11,1.43,8.35-0.29c0.78,3.07,5.12,4.16,7.45,1.26
	c0,0-2.8,1.56-4.2-0.23c-1.4-1.79,0.76-5.14,4.16-4.35c2.35,0.54,4.32,2.45,5.97,3.34c6.52,4.12,15.69,5.45,26.53-0.06
	c4.3-2.18,7.53-5.32,9.81-8.97c2.28,3.65,5.51,6.79,9.81,8.97c10.84,5.51,20.02,4.18,26.53,0.06c1.65-0.89,3.63-2.8,5.97-3.34
	c3.4-0.79,5.57,2.56,4.16,4.35c-1.4,1.79-4.2,0.23-4.2,0.23c2.33,2.9,6.68,1.8,7.45-1.26c2.24,1.72,5.12,2.48,8.35,0.29
	c-6.13,1.44-7.36-2.92-10.11-5.47c-0.92-0.86-2.22-1.43-3.99-1.23c2.61-1.56,5.4-2.65,8.59-1.95c3.33,0.73,3.53,2.33,3.31,3.41
	c-0.32,1.57-2.35,2.22-3.74,0.62c-0.11,1.42,2.25,3.57,4.72,1.4c2.47-2.17,1.53-6.83-3.91-7.95c-3.23-0.67-5.91,0.02-7.81,1.08
	c0.2-0.41,0.38-0.83,0.54-1.24c1.08-2.12,2.07-3.92,5.44-4.42c-1.42-0.96-2.89-0.84-4.18-0.1c0.41-2.48,0.28-4.75-0.29-6.74
	c0.09-2.61,2.13-8.29,6.91-5.43c-0.76-2.34,1.4-4.11,3.85-4.06c-3.4-1.36-4.48,0.27-7.33-1.52c0.88,2.61-3.65,3.02-5.44,7.02
	c-1.98-2.54-5.02-4.12-8.66-4.39c-4.39-0.32-7.78,2.07-9.36,5.24c-0.84,1.07-0.95,2.61-1.93,4.93c-1.13,2.67-4.05,2.52-4.97,0.81
	c-0.92-1.71,1.27-3.05,1.27-3.05c-3.49,0.54-3.85,4.97-0.56,6.37c1.54,0.66,4.26,0.74,6.14-1.26c0.28,0.52,0.62,1.03,1.03,1.5
	c2.81,3.26,6.47,3.69,9.17,2.68c5.64-2.1,5.7-11.46-2.15-11.22c2.21,1.81,1.74,3.73,0.63,5c2.21,0.61,0.55,4.65-3.39,2.79
	c-3.94-1.86-3.16-10.07,3.26-10.55c4.27-0.32,8.97,2.27,9.64,7.9c0.33,2.76-0.11,5.48-1.11,7.99c0.15-1.51-0.02-3.07-0.57-4.64
	C191.4,66.04,175.62,66.25,168,57.8c-6.4-7.1-6.48-18.14-1.33-19.18c-5.37-4.74,2.18-13.39,7.31-17c3.06,1.64,4.91,4.44,4.67,7.72
	c-0.51,6.93-6.08,6.76-7.86,5.12c-1.78-1.63-0.67-4.79,1.82-4.61c-0.76-1.19-5.36-0.29-4.32,3.73c1.03,4.02,7.27,5.74,11.59,1.93
	c4.32-3.8,3.44-8.43,3.44-8.43c2.17,1.47,3.72,2.72,3.03,5.7c6.8,1.71,14.77-1.47,18.55-6.71c4.73,3.99,8.29,9.25,9.57,15.01
	c1.79,8.07-3.63,11.45-6.58,10.11c-2.95-1.34-3.22-4.61-0.78-5.92c1.95-1.05,3.43,0.8,2.86,2.48c2.41-1.89-0.14-5.09-2.89-4.48
	c-5.08,1.11-4.97,7.58-0.76,10.35c3.43,2.26,9.81,1.28,12.06-4.66c0.41-1.09,0.68-2.18,0.82-3.26c0.43,2.36,0.3,5.18-1.48,7.86
	c-4.21,6.34-10.96,3.92-14.1,0.27c1.03,3.6,4.97,5.96,8.69,5.98c7.24,0.04,9.12-7.52,8.22-12.9c0.9,2.47,1.41,6.24,0.18,7.94
	c-0.01,2.15,1.05,2.22,1.49,4.58c0.89-2.07-0.09-3.09,0.54-4.81c0.03-3.22-0.61-4.61-1.39-6.58c2.08,2.98,2.66,10.65,9.06,11.1
	c-2.97-1.46-6.78-6.96-7.96-10.32c8.13,10.31,19.49,20.2,33.37,19.94c9.91-0.19,16.01-6.15,17.31-10.02
	c-3.48,3.75-9.59,5.38-12.99,3.17c-10.95,7.55-25.45-1.88-34.81-12.11c5.04,4.74,12.31,7.77,19.3,6.97
	c17.65,6.13,27.14-2.07,32.89-4.78c6.08-2.86,10.17,1.46,7.94,4.68c-2.24,3.22-5.75,1.2-5.57-1.24c-1.71,2.57,1.6,5.78,5.45,4.68
	C289.42,58.96,290.55,53.06,287.48,50z M58.59,54.88c8.4-3.76,14.51-8.23,18.69-11.99C72.75,49.09,66.63,54.34,58.59,54.88z
	 M196.02,14.8c0.32-2.33,5.41-2.54,7.47,0.42c1.33,1.9,1.67,4.59,0.56,7.06c-0.87-0.58-1.73-1.13-2.6-1.64
	c-4.39-2.59-9.05-4.07-13.64-4.53C189.11,12.73,193.64,10.86,196.02,14.8z M94.96,15.22c2.07-2.96,7.15-2.75,7.47-0.42
	c2.38-3.94,6.91-2.07,8.21,1.31c-4.59,0.46-9.24,1.93-13.64,4.53c-0.86,0.51-1.73,1.06-2.6,1.64
	C93.29,19.81,93.63,17.12,94.96,15.22z M112.71,25.6c-3.76,2.72-9.11,3.2-12.99,1.54c-1.71-0.74-3.02-1.7-3.96-2.77
	c4.55-3.24,9.9-5.37,15.25-5.83c-0.16,3.47-3.06,7.15-8.6,5.82c4.32,3.61,10.06-0.26,11.49-4.34c0.17-0.5,0.29-1.02,0.37-1.55
	c2.5,0.11,4.96,0.61,7.3,1.56C118.11,21.65,115.13,23.85,112.71,25.6z M129.14,20.17c2.93-0.37,6.31,0.04,9.79,1.53
	c3.61,1.54,6.79,4.79,8.97,8.99c-3.02,6.39-3.81,14.43-1.82,21.72c-2.09-0.77-4.36-0.66-6.23,0.39c0.21-1.11,1.49-6.4,1.57-7.63
	c0.17-2.5,0.37-7.48,3.39-8.92c-3.56-0.78-5.05-3.65-6.27-6.01C136.35,25.99,133.07,22.58,129.14,20.17z M149.23,52.47
	c-2.39-6.45-2.04-13.16,0-18.74C151.27,39.31,151.62,46.02,149.23,52.47z M119.13,68.98c-0.36-0.09-0.72-0.19-1.08-0.3
	c4.99,0.66,10.83-0.9,16.24-5.98c5.58-5.24,9.46-5.93,12.3-4.97c-0.18,0.28-0.36,0.55-0.55,0.82
	C139.64,67.74,128.27,71.17,119.13,68.98z M164.18,62.71c5.41,5.08,11.24,6.64,16.24,5.98c-0.36,0.11-0.72,0.21-1.08,0.3
	c-9.15,2.18-20.52-1.25-26.9-10.42c-0.19-0.27-0.37-0.55-0.55-0.82C154.71,56.78,158.59,57.47,164.18,62.71z M159.92,30.23
	c-1.21,2.36-2.7,5.23-6.27,6.01c3.02,1.44,3.22,6.42,3.39,8.92c0.08,1.23,1.36,6.52,1.57,7.63c-1.88-1.05-4.14-1.16-6.23-0.39
	c2-7.28,1.21-15.32-1.82-21.72c2.18-4.2,5.36-7.46,8.97-8.99c3.48-1.48,6.86-1.9,9.79-1.53C165.38,22.58,162.11,25.99,159.92,30.23z
	 M198.74,27.14c-3.87,1.67-9.23,1.18-12.98-1.54c-2.42-1.75-5.41-3.95-8.86-5.59c2.34-0.95,4.8-1.45,7.3-1.56
	c0.08,0.54,0.2,1.06,0.37,1.55c1.43,4.08,7.17,7.95,11.49,4.34c-5.55,1.34-8.44-2.35-8.6-5.82c5.35,0.47,10.7,2.59,15.25,5.83
	C201.75,25.44,200.45,26.4,198.74,27.14z M221.18,42.89c4.17,3.76,10.29,8.23,18.69,11.99C231.83,54.34,225.71,49.09,221.18,42.89z"
	/>
</svg>
