<?xml version="1.0" encoding="utf-8"?>
<!-- Generator: Adobe Illustrator 23.0.1, SVG Export Plug-In . SVG Version: 6.00 Build 0)  -->
<svg version="1.1" id="Layer_1" xmlns="http://www.w3.org/2000/svg" xmlns:xlink="http://www.w3.org/1999/xlink" x="0px" y="0px"
	 viewBox="0 0 80 80" style="enable-background:new 0 0 80 80;" xml:space="preserve">
<style type="text/css">
	.st0{fill:#37312D;}
</style>
<path class="st0" d="M77.35,27.11c-0.59-1.71-1.29-3.36-2.1-4.95c-0.38-0.76-0.79-1.5-1.23-2.23C67.15,8.3,54.49,0.5,40,0.5
	C18.18,0.5,0.5,18.18,0.5,40c0,18.44,12.64,33.93,29.72,38.28c3.13,0.8,6.4,1.22,9.78,1.22c5.58,0,10.88-1.16,15.69-3.24
	c1.83-0.79,3.58-1.72,5.25-2.76C72.09,66.51,79.5,54.12,79.5,40C79.5,35.49,78.74,31.15,77.35,27.11z M6.75,40
	C6.75,21.64,21.64,6.75,40,6.75c15.77,0,28.97,10.97,32.39,25.7c-2,1.87-3.92,3.36-4.75,3.29l-4.74-0.42L62,34.85
	c-1.25,1.85-2.86,4.25-5.14,4.73c0.87-4.36-1.99-8.64-7.5-12.86c-0.62-1.77-1.57-3.49-2.9-4.88c1.77,0.8,3.68,2.07,5.73,3.81
	c-3.03-3-5.91-5.1-8.68-6.45c2.54-0.56,5.88-0.08,10,1.45c-4.87-2.25-9.05-3.25-12.67-3.24c-0.84-0.99-0.33-2.23,1.62-3.58
	c-2.09,0.19-3.82,0.49-5.29,0.85c1.09-2.25,1.31-4.4,0.5-6.43c0.26,2.43-0.77,4.85-3.08,7.25c-5.23,2.05-5.99,5.15-10.11,6.3
	l0.6,0.84c-1.89,4.86-7.05,4.32-4.87,9.66c0.07-0.33,0.36-0.83,0.8-1.35c2.02,0.42,3.52,0.21,4.3-0.89
	c-0.83,0.67-2.04,0.74-3.64,0.19c0.86-0.81,2-1.5,3.12-1.48c2.17,0.03,3.92-0.68,3.97-1.64c1.03,0.56,1.62-0.06,3.02,0.92
	c-1.2,0.64-3.77,1.41-4.84,2.36c-0.14-0.54-0.12-1.04,0.1-1.39c-0.51,0.46-0.72,1.12-0.68,1.93c-0.56,0.55-1.09,1.16-1.58,1.83
	c1.71,0.94,4.33,1.59,5.78,1.21l-1.46-1.72c3.62-3.05,4.36-1.56,6.79-4.13c1.2,0.98,2.5,2.19,1.96,3.24
	c-0.86,1.68-2.11,3.46-3.37,5.25l-1.69,0.01c-0.9,1.7-1.84,3.12-2.83,4.28c-2.69-0.17-6.4,4.28-6.22,15.12l-1.52,8.63h2.34
	c0.43,2.63,1.41,3.99,2.52,6C15.12,65.58,6.75,53.77,6.75,40z"/>
</svg>
