<?xml version="1.0" encoding="utf-8"?>
<!-- Generator: Adobe Illustrator 23.0.1, SVG Export Plug-In . SVG Version: 6.00 Build 0)  -->
<svg version="1.1" id="Layer_1" xmlns="http://www.w3.org/2000/svg" xmlns:xlink="http://www.w3.org/1999/xlink" x="0px" y="0px"
	 viewBox="0 0 80 80" style="enable-background:new 0 0 80 80;" xml:space="preserve">
<style type="text/css">
	.st0{fill:#8FA3AD;}
</style>
<path class="st0" d="M40,0.5C18.18,0.5,0.5,18.18,0.5,40S18.18,79.5,40,79.5S79.5,61.82,79.5,40S61.82,0.5,40,0.5z M40,6.75
	c18.36,0,33.25,14.89,33.25,33.25c0,1.95-0.17,3.87-0.49,5.73c-0.29-4.94-1.85-9.62-4.51-14.03c-1.95-3.23-4.32-6.12-7.27-8.49
	c-0.41-0.33-1-0.43-1.5-0.63c-0.05,0.12-0.1,0.24-0.15,0.37c0.24,0.27,0.47,0.55,0.71,0.81c6.23,6.74,9.2,14.65,8.57,23.84
	c-0.2,2.97-0.97,5.78-2.77,8.22c-2.62,3.57-6.28,3.58-8.66-0.11c-0.96-1.48-1.58-3.2-2.23-4.86c-0.44-1.11-0.7-2.24-2.04-2.66
	c-0.41-0.13-0.73-0.51-1.09-0.78c0.11-0.11,0.23-0.22,0.34-0.33c0.86,1.41,3.48,0.84,3.4,3.4c0.35-0.39,0.68-0.73,0.63-1
	c-0.25-1.23-0.47-2.5-0.96-3.65c-0.83-1.93-1.91-3.76-2.77-5.68c-0.22-0.5,0-1.19,0.01-1.79c0.01-0.52,0-1.03,0-1.55
	c-0.12,0.01-0.24,0.01-0.36,0.02c-0.14,0.36-0.27,0.72-0.45,1.19c-0.43-0.91,0.03-1.32,0.58-1.73c0.91-0.69,1.77-1.57,1.49-2.75
	c-0.29-1.23-0.95-2.38-1.54-3.52c-0.11-0.22-0.66-0.21-0.86-0.27c0.25,1.28,0.79,2.41,0.55,3.34c-0.23,0.87-1.29,1.51-2,2.27
	c-1.41-2.94-0.99-4.56,1.62-6.32c1-0.67,1.2-1.61,0.33-2.45c-0.81-0.78-1.79-1.39-2.74-1.99c-0.78-0.48-1.64-0.83-2.47-1.24
	c0.03-0.06,0.06-0.11,0.09-0.17c0.52,0.15,1.04,0.31,1.54,0.45c0.13-0.86,0.23-1.62,0.37-2.37c0.22-1.21-0.16-2.2-1.16-2.87
	c-1.43-0.96-2.98-1.27-4.64-0.58c-0.26,0.11-0.53,0.33-0.78,0.31c-1.87-0.18-3.74,0.18-5.63-0.5c-2.62-0.94-5.25,1.09-5.01,3.59
	c0.08,0.8,0.21,1.6,0.33,2.45c0.39-0.11,0.78-0.21,1.16-0.31c0.04,0.05,0.09,0.11,0.13,0.16c-0.58,0.29-1.18,0.54-1.72,0.89
	c-1.08,0.71-2.23,1.36-3.14,2.24c-0.9,0.87-0.62,1.86,0.48,2.5c0.41,0.24,0.93,0.39,1.23,0.73c1.33,1.5,1.29,4.08,0.15,5.55
	c-0.22-0.28-0.39-0.68-0.7-0.87c-1.51-0.91-1.82-1.87-1.04-3.47c0.19-0.39,0.42-0.76,0.63-1.14c-0.86-0.47-0.9-0.49-1.2,0.18
	c-0.38,0.85-0.48,1.89-1.04,2.58c-0.99,1.22-0.22,2.03,0.38,2.91c0.27,0.39,0.8,0.6,1.07,0.98c0.24,0.34,0.29,0.81,0.43,1.22
	c-0.11,0.03-0.21,0.06-0.32,0.1c-0.14-0.37-0.27-0.73-0.41-1.1c-0.25,0.55-0.26,1.05-0.25,1.54c0.02,0.53,0.25,1.15,0.05,1.58
	c-0.91,1.99-2.04,3.88-2.89,5.89c-0.5,1.18-0.66,2.52-0.9,3.8c-0.04,0.2,0.3,0.48,0.46,0.72c0.15-2.41,2.57-1.98,3.64-3.09
	c-0.3,0.41-0.64,0.85-1.08,1c-0.98,0.34-1.27,1.09-1.6,1.97c-0.69,1.82-1.42,3.65-2.33,5.37c-1.71,3.22-5.04,3.74-7.74,1.3
	c-1.79-1.62-2.83-3.71-3.29-6.01C9.87,40.5,12.97,31.57,19.9,23.78c0.27-0.3,0.55-0.6,0.83-0.89c-0.11-0.14-0.23-0.29-0.34-0.43
	c-0.67,0.42-1.42,0.75-1.99,1.28C12.62,29,8.8,35.37,7.55,43.16c-0.14,0.87-0.24,1.73-0.3,2.59c-0.33-1.87-0.5-3.79-0.5-5.75
	C6.75,21.64,21.64,6.75,40,6.75z M39.92,41.73c-0.14-2.26-0.39-4.52-0.55-6.78c-0.02-0.27,0.11-0.65,0.3-0.8
	c0.22-0.16,0.65-0.22,0.88-0.11c0.21,0.11,0.41,0.51,0.4,0.77c-0.14,3.48-0.31,6.97-0.48,10.45c-0.01,0.22-0.12,0.44-0.18,0.66
	c-0.12-0.01-0.24-0.01-0.36-0.02C39.94,44.51,40.01,43.11,39.92,41.73z M36.41,30.58c2.14-1.72,5.22-1.69,7.28,0
	C41.28,30.58,38.88,30.58,36.41,30.58z M40,73.25c-8.03,0-15.39-2.85-21.14-7.58c1.94-0.03,3.78-0.67,5.5-1.77
	c4.2-2.71,6.6-6.79,7.99-11.47c0.58-1.95-0.73-3.78-2.73-4.22c-0.14-0.03-0.27-0.11-0.4-0.17c1.07-0.2,2.03-0.06,2.69,0.85
	c0.74,1.02,1.43,2.07,2.21,3.19c-0.48,0.41-1.08,0.91-1.67,1.41c0.37,0.15,0.66,0.16,0.89,0.05c1.75-0.82,3.17-1.96,3.77-3.92
	c0.17-0.57,0.51-1.09,0.9-1.92c0.78,1.3,1.35,2.25,2.06,3.43c0.55-1.04,0.96-1.83,1.38-2.6c0.34-0.61,0.72-0.65,1.03,0.01
	c0.33,0.7,0.55,1.45,0.89,2.14c0.85,1.7,2.31,2.56,4.2,2.82c-0.63-0.54-1.25-1.07-1.68-1.44c0.67-1.02,1.3-1.91,1.86-2.84
	c0.63-1.05,1.83-1.56,3.03-1.19c-2.45,0.5-3.78,2.36-3.08,4.61c1.36,4.37,3.6,8.24,7.41,10.94c1.78,1.26,3.89,2.04,6.02,2.1
	C55.39,70.4,48.03,73.25,40,73.25z"/>
</svg>
